<svg width="20" height="20" viewBox="0 0 20 20" fill="none" xmlns="http://www.w3.org/2000/svg">
<g clip-path="url(#clip0_3323_947)">
<path fill-rule="evenodd" clip-rule="evenodd" d="M11.875 6.25C12.22 6.25 12.5 5.97062 12.5 5.625V3.125C12.5 2.77938 12.22 2.5 11.875 2.5C11.53 2.5 11.25 2.77938 11.25 3.125V5.625C11.25 5.97062 11.53 6.25 11.875 6.25ZM18.75 17.5C18.75 18.19 18.19 18.75 17.5 18.75H2.5C1.81 18.75 1.25 18.19 1.25 17.5V2.5C1.25 1.81 1.81 1.25 2.5 1.25H3.75V7.5C3.75 8.19 4.31 8.75 5 8.75H15C15.69 8.75 16.25 8.19 16.25 7.5V1.25H17.5C18.19 1.25 18.75 1.81 18.75 2.5V17.5ZM5 1.25H15V6.875C15 7.22062 14.72 7.5 14.375 7.5H5.625C5.28 7.5 5 7.22062 5 6.875V1.25ZM17.5 0H2.5C1.11937 0 0 1.11937 0 2.5V17.5C0 18.8806 1.11937 20 2.5 20H17.5C18.8806 20 20 18.8806 20 17.5V2.5C20 1.11937 18.8806 0 17.5 0Z" fill="white"/>
</g>
<defs>
<clipPath id="clip0_3323_947">
<rect width="20" height="20" fill="white"/>
</clipPath>
</defs>
</svg>
