<svg width="44" height="44" viewBox="0 0 44 44" fill="none" xmlns="http://www.w3.org/2000/svg">
<g clip-path="url(#clip0_3323_1115)">
<path d="M41.8727 24.4766L41.8084 24.4005C41.5017 24.0214 40.8308 23.4825 39.8523 23.1089L39.7023 23.0633C38.6831 22.5933 37.7596 22.278 37.4888 22.1892C37.2762 22.1193 37.0981 22.0432 36.9561 21.9813C35.8318 21.4267 35.7046 21.1026 35.6864 21.0524L35.6353 20.9331L35.6785 20.8257C36.5141 19.7852 37.101 18.573 37.3246 17.4305L37.3575 17.3529C37.5882 17.0586 37.7357 16.7148 37.7945 16.336C38.0604 15.3748 38.0714 14.6686 37.8328 14.1736L37.8116 14.1297L37.8225 14.081C38.1192 12.839 38.4048 10.5124 36.9791 8.88909C36.7515 8.60341 35.8774 7.63829 34.1817 7.1417L33.3547 6.85843C31.9996 6.44099 31.1428 6.34057 31 6.33816C30.9097 6.33816 30.829 6.34912 30.7113 6.37499L30.6093 6.39538C30.5497 6.38596 30.4877 6.38048 30.4179 6.38048C29.9643 6.38048 29.4741 6.57977 29.4741 6.57977C28.9961 6.7806 26.5686 7.90029 25.7989 10.2793C25.6711 10.6174 25.4104 11.6454 25.7478 13.8942L25.7563 13.9499L25.721 13.9971C25.3751 14.4632 25.3459 15.2187 25.634 16.234C25.7094 16.6837 25.8561 17.0431 26.0718 17.3136L26.108 17.3897C26.3207 18.5675 26.844 19.7279 27.6217 20.7479L27.6837 20.8303L27.6256 20.9127C27.5919 20.963 27.5684 21.0147 27.5596 21.0524C27.4404 21.3929 26.5279 21.932 25.1131 22.4985C24.7969 22.3839 24.5772 22.3118 24.4994 22.2859C24.2131 22.1901 23.9736 22.0875 23.7798 22.0026C22.2835 21.2642 22.0866 20.8336 22.0568 20.7347L21.9783 20.5598L22.0474 20.3973C23.1701 18.9983 23.9581 17.3693 24.2609 15.8276L24.3071 15.7217C24.6178 15.327 24.8164 14.8655 24.891 14.3626C25.2479 13.0765 25.2668 12.1302 24.9451 11.4703L24.9098 11.4003L24.9287 11.3249C25.3282 9.65667 25.711 6.53548 23.7972 4.36122C23.4935 3.98061 22.3276 2.68597 20.0489 2.01902L18.9356 1.63687C17.0771 1.06574 15.9236 0.940988 15.7739 0.939453C15.6515 0.939453 15.5456 0.952827 15.3911 0.98966L15.242 1.014C14.6252 0.91424 13.8673 1.20693 13.73 1.26043C13.0881 1.52966 9.83427 3.03457 8.8025 6.22481C8.63061 6.67668 8.28223 8.05464 8.73497 11.0732L8.74835 11.1642L8.69178 11.2396C8.23049 11.8564 8.19519 12.8647 8.58194 14.226C8.68082 14.8254 8.87704 15.304 9.16798 15.6706L9.21907 15.778C9.5008 17.3583 10.2037 18.9189 11.2506 20.2929L11.3486 20.4208L11.2552 20.5558C11.2096 20.6225 11.1791 20.6909 11.1721 20.7338C10.9123 21.4738 8.01628 22.7676 5.47873 23.5422C3.65198 24.2343 2.8502 25.3555 2.84537 25.3626C0.329526 29.0974 0.0109623 37.1157 0 37.4601C0.039245 39.5458 0.986387 39.9694 1.16836 40.0305L1.32841 40.1005C6.89396 42.5291 15.0229 43.0022 15.9324 43.0485L16.2165 43.057C16.4879 43.057 16.7633 43.0421 17.0216 43.0281L17.0444 43.0272L17.1284 43.0335C17.1959 43.05 17.2507 43.0588 17.3073 43.0588H17.3081L17.3465 43.0572C17.7144 43.0384 26.4421 42.5424 31.8884 40.0983C32.1857 40.0198 33.1462 39.6072 33.2326 37.5796C35.1747 37.4116 39.8205 36.8765 42.9757 35.4619C43.2094 35.4007 43.9746 35.0758 44.0004 33.4288C43.9647 32.7954 43.661 27.1365 41.8727 24.4766ZM12.0813 21.5679L12.2328 21.4267L12.3834 21.5679C13.7158 22.8233 15.1918 23.513 16.5351 23.513C17.9466 23.513 19.4037 22.9009 20.7485 21.7413L20.8623 21.6455L21.1572 21.7899C21.4083 22.0182 21.8579 22.3462 22.0596 22.4451L22.3374 22.5808L22.3076 22.609L22.4144 22.6733C22.6687 22.8233 22.9392 22.9699 23.2484 23.1236C23.5615 23.2624 23.8298 23.3668 24.1146 23.461C24.1703 23.4799 25.4996 23.9092 27.0146 24.6105L27.2854 24.6945C28.7251 25.2431 29.334 26.0159 29.3561 26.0424C31.5909 29.3598 31.9667 36.6007 32.0035 37.4103C31.9862 38.5419 31.6637 38.8352 31.5797 38.8918C26.5713 41.1336 19.0049 41.7165 17.5408 41.8099L17.5 41.8124L17.4583 41.7999C17.409 41.7849 17.3586 41.7779 17.2959 41.7779H17.2943L17.2426 41.7803C16.8425 41.8077 16.5114 41.8211 16.202 41.8211H15.9596C15.0477 41.7661 6.88892 41.2318 1.66715 38.9084C1.56191 38.8646 1.25365 38.5083 1.23085 37.4678C1.23172 37.3902 1.50008 29.5743 3.84535 26.0905C3.96002 25.946 4.5978 25.2029 5.87206 24.7164C6.99175 24.372 9.76389 23.4531 11.2798 22.3554C11.3433 22.317 11.406 22.2526 11.4736 22.1835C11.5845 22.0638 11.8152 21.8158 12.0813 21.5679ZM27.6848 23.524L27.4776 23.4635C27.1371 23.3065 26.78 23.1512 26.4106 22.9997C26.9324 22.7557 27.3592 22.5163 27.6763 22.285C27.7274 22.2552 27.7782 22.2034 27.8262 22.1532C27.9409 22.03 28.0955 21.8645 28.2759 21.6959L28.3724 21.6073L28.4649 21.6976C29.4622 22.6345 30.5637 23.1484 31.5659 23.1484C32.622 23.1484 33.7104 22.6917 34.7123 21.827L34.7838 21.7665L34.9861 21.8645C35.1705 22.0364 35.5064 22.278 35.6562 22.3525L35.8311 22.4356L35.8099 22.4569L35.9197 22.5211C36.1104 22.6349 36.3143 22.7432 36.5428 22.8561C36.7774 22.9596 36.9767 23.0381 37.1878 23.1087C37.2286 23.1221 38.2086 23.4367 39.3417 23.9616L39.541 24.0227C40.5728 24.4174 41.0215 24.9589 41.0647 25.0153C42.7321 27.4868 43.0013 32.8445 43.0257 33.4415C43.0138 34.2701 42.7841 34.4821 42.7266 34.5196C39.5897 35.9234 35.0857 36.4507 33.1916 36.6169C33.0213 34.1578 32.414 28.3662 30.3881 25.354L30.3026 25.2512C29.892 24.7449 28.9928 24.0247 27.6848 23.524ZM26.5116 14.5743L26.5469 14.5327C26.7055 14.4165 26.7831 14.2369 26.7532 14.051C26.3766 11.7888 26.6215 10.8395 26.7055 10.6001C27.3623 8.58587 29.4283 7.64596 29.8345 7.47956C29.9161 7.4482 30.0739 7.40107 30.241 7.37278L30.2912 7.36094L30.6028 7.3445L30.6052 7.36577L30.6992 7.35722C30.7692 7.35174 30.8365 7.34077 30.8836 7.33047L30.9889 7.30701C31.0555 7.30854 31.8715 7.41444 33.0542 7.77707L33.8882 8.06341C35.4025 8.51067 36.1041 9.34621 36.2334 9.51503C37.4505 10.8961 37.124 12.9739 36.8204 14.0903C36.7859 14.2275 36.807 14.3687 36.8855 14.4842L36.953 14.5713C37.0385 14.6859 37.1161 15.1418 36.8526 16.1242C36.8033 16.4224 36.6925 16.6618 36.534 16.821C36.4698 16.8885 36.4266 16.9764 36.4108 17.0768C36.0004 19.4881 33.841 22.1833 31.5664 22.1833C29.6346 22.1833 27.432 19.7023 27.0359 17.0768C27.0194 16.9771 26.9771 16.8894 26.9072 16.81C26.7456 16.6429 26.6412 16.3989 26.5768 16.0308C26.3862 15.3481 26.365 14.7964 26.5116 14.5743ZM9.70141 11.9756L9.75403 11.9151C9.95814 11.7684 10.0568 11.5378 10.0193 11.2993C9.50847 8.23288 9.84194 6.95709 9.95661 6.63677C10.8439 3.9133 13.6404 2.63992 14.1896 2.41388C14.3043 2.37003 14.5176 2.30557 14.7436 2.26874L14.8041 2.25471L15.2648 2.2295L15.2663 2.25844L15.3652 2.24901C15.457 2.24046 15.5472 2.22621 15.6524 2.20516L15.7576 2.18082C15.8431 2.1817 16.9229 2.31741 18.551 2.81642L19.6707 3.20163C21.7172 3.80653 22.6705 4.93894 22.8454 5.16564C24.4915 7.03383 24.0521 9.84522 23.6441 11.3558C23.5963 11.5301 23.6253 11.7112 23.725 11.8588L23.816 11.9756C23.966 12.1765 24.0223 12.8489 23.6873 14.0942C23.6198 14.5007 23.4685 14.8302 23.2471 15.049C23.1662 15.1354 23.1138 15.2483 23.091 15.3761C22.5339 18.6363 19.6118 22.2817 16.5344 22.2817C13.9193 22.2817 10.9375 18.9266 10.3993 15.3783C10.3813 15.2505 10.3287 15.1352 10.2361 15.0345C10.0116 14.803 9.86979 14.4695 9.78253 13.9736C9.52338 13.0396 9.49663 12.2887 9.70141 11.9756Z" fill="#010002"/>
</g>
<defs>
<clipPath id="clip0_3323_1115">
<rect width="44" height="44" fill="white"/>
</clipPath>
</defs>
</svg>
