<svg width="38" height="31" viewBox="0 0 38 31" fill="none" xmlns="http://www.w3.org/2000/svg">
<path d="M36.5 29.1221H34.6241V12.2471C34.6235 11.75 34.4258 11.2734 34.0743 10.9219C33.7228 10.5703 33.2462 10.3726 32.7491 10.3721H22.1241V2.24707C22.1235 1.74996 21.9258 1.27337 21.5743 0.921858C21.2228 0.570348 20.7462 0.372626 20.2491 0.37207H5.24908C4.75197 0.372626 4.27538 0.570348 3.92387 0.921858C3.57236 1.27337 3.37464 1.74996 3.37408 2.24707V29.1221H1.5C1.33424 29.1221 1.17527 29.1879 1.05806 29.3051C0.940848 29.4223 0.875 29.5813 0.875 29.7471C0.875 29.9128 0.940848 30.0718 1.05806 30.189C1.17527 30.3062 1.33424 30.3721 1.5 30.3721H36.5C36.6658 30.3721 36.8247 30.3062 36.9419 30.189C37.0592 30.0718 37.125 29.9128 37.125 29.7471C37.125 29.5813 37.0592 29.4223 36.9419 29.3051C36.8247 29.1879 36.6658 29.1221 36.5 29.1221ZM32.7491 11.6221C32.9148 11.6222 33.0737 11.6882 33.1908 11.8053C33.308 11.9225 33.3739 12.0814 33.3741 12.2471V29.1221H22.1241V11.6221H32.7491ZM4.62408 2.24707C4.62426 2.08136 4.69017 1.9225 4.80734 1.80532C4.92451 1.68815 5.08338 1.62225 5.24908 1.62207H20.2491C20.4148 1.62225 20.5737 1.68815 20.6908 1.80532C20.808 1.9225 20.8739 2.08136 20.8741 2.24707V29.1221H4.62408V2.24707ZM8.37408 7.24707C8.37409 7.08131 8.43994 6.92235 8.55715 6.80514C8.67436 6.68793 8.83333 6.62208 8.99908 6.62207H13.9991C14.1648 6.62207 14.3238 6.68792 14.441 6.80513C14.5582 6.92234 14.6241 7.08131 14.6241 7.24707C14.6241 7.41283 14.5582 7.5718 14.441 7.68901C14.3238 7.80622 14.1648 7.87207 13.9991 7.87207H8.99908C8.83333 7.87206 8.67436 7.80621 8.55715 7.689C8.43994 7.57179 8.37409 7.41283 8.37408 7.24707ZM17.1241 17.2471C17.1241 17.4128 17.0582 17.5718 16.941 17.689C16.8238 17.8062 16.6648 17.8721 16.4991 17.8721H11.4991C11.3333 17.8721 11.1744 17.8062 11.0571 17.689C10.9399 17.5718 10.8741 17.4128 10.8741 17.2471C10.8741 17.0813 10.9399 16.9223 11.0571 16.8051C11.1744 16.6879 11.3333 16.6221 11.4991 16.6221H16.4991C16.6648 16.6221 16.8238 16.6879 16.941 16.8051C17.0582 16.9223 17.1241 17.0813 17.1241 17.2471ZM14.6241 23.4971C14.6241 23.6628 14.5582 23.8218 14.441 23.939C14.3238 24.0562 14.1648 24.1221 13.9991 24.1221H8.99908C8.83332 24.1221 8.67435 24.0562 8.55714 23.939C8.43993 23.8218 8.37408 23.6628 8.37408 23.4971C8.37408 23.3313 8.43993 23.1723 8.55714 23.0551C8.67435 22.9379 8.83332 22.8721 8.99908 22.8721H13.9991C14.1648 22.8721 14.3238 22.9379 14.441 23.0551C14.5582 23.1723 14.6241 23.3313 14.6241 23.4971ZM29.6241 23.4971C29.6241 23.6628 29.5582 23.8218 29.441 23.939C29.3238 24.0562 29.1648 24.1221 28.9991 24.1221H26.4991C26.3333 24.1221 26.1744 24.0562 26.0571 23.939C25.9399 23.8218 25.8741 23.6628 25.8741 23.4971C25.8741 23.3313 25.9399 23.1723 26.0571 23.0551C26.1744 22.9379 26.3333 22.8721 26.4991 22.8721H28.9991C29.1648 22.8721 29.3238 22.9379 29.441 23.0551C29.5582 23.1723 29.6241 23.3313 29.6241 23.4971ZM25.8741 17.2471C25.8741 17.0813 25.9399 16.9223 26.0572 16.8051C26.1744 16.6879 26.3333 16.6221 26.4991 16.6221H28.9991C29.1648 16.6221 29.3238 16.6879 29.441 16.8051C29.5582 16.9223 29.6241 17.0813 29.6241 17.2471C29.6241 17.4128 29.5582 17.5718 29.441 17.689C29.3238 17.8062 29.1648 17.8721 28.9991 17.8721H26.4991C26.3333 17.8721 26.1744 17.8062 26.0572 17.689C25.9399 17.5718 25.8741 17.4128 25.8741 17.2471Z" fill="black"/>
</svg>
