<svg width="21" height="21" viewBox="0 0 21 21" fill="none" xmlns="http://www.w3.org/2000/svg">
<path d="M14.875 14.875H14.8838M15.225 12.25H15.75C16.5654 12.25 16.9731 12.25 17.2947 12.3832C17.7235 12.5608 18.0642 12.9015 18.2418 13.3303C18.375 13.6519 18.375 14.0596 18.375 14.875C18.375 15.6904 18.375 16.0981 18.2418 16.4197C18.0642 16.8485 17.7235 17.1892 17.2947 17.3668C16.9731 17.5 16.5654 17.5 15.75 17.5H5.25C4.43461 17.5 4.02691 17.5 3.7053 17.3668C3.27651 17.1892 2.93583 16.8485 2.75821 16.4197C2.625 16.0981 2.625 15.6904 2.625 14.875C2.625 14.0596 2.625 13.6519 2.75821 13.3303C2.93583 12.9015 3.27651 12.5608 3.7053 12.3832C4.02691 12.25 4.43461 12.25 5.25 12.25H5.775M10.5 13.125V3.5M10.5 13.125L7.875 10.5M10.5 13.125L13.125 10.5" stroke="#5C5C5C" stroke-width="1.5" stroke-linecap="round" stroke-linejoin="round"/>
</svg>
