<svg width="40" height="40" viewBox="0 0 40 40" fill="none" xmlns="http://www.w3.org/2000/svg">
<path d="M37.5 33.1221H35.6241V16.2471C35.6235 15.75 35.4258 15.2734 35.0743 14.9219C34.7228 14.5703 34.2462 14.3726 33.7491 14.3721H23.1241V6.24707C23.1235 5.74996 22.9258 5.27337 22.5743 4.92186C22.2228 4.57035 21.7462 4.37263 21.2491 4.37207H6.24908C5.75197 4.37263 5.27538 4.57035 4.92387 4.92186C4.57236 5.27337 4.37464 5.74996 4.37408 6.24707V33.1221H2.5C2.33424 33.1221 2.17527 33.1879 2.05806 33.3051C1.94085 33.4223 1.875 33.5813 1.875 33.7471C1.875 33.9128 1.94085 34.0718 2.05806 34.189C2.17527 34.3062 2.33424 34.3721 2.5 34.3721H37.5C37.6658 34.3721 37.8247 34.3062 37.9419 34.189C38.0592 34.0718 38.125 33.9128 38.125 33.7471C38.125 33.5813 38.0592 33.4223 37.9419 33.3051C37.8247 33.1879 37.6658 33.1221 37.5 33.1221ZM33.7491 15.6221C33.9148 15.6222 34.0737 15.6882 34.1908 15.8053C34.308 15.9225 34.3739 16.0814 34.3741 16.2471V33.1221H23.1241V15.6221H33.7491ZM5.62408 6.24707C5.62426 6.08136 5.69017 5.9225 5.80734 5.80532C5.92451 5.68815 6.08338 5.62225 6.24908 5.62207H21.2491C21.4148 5.62225 21.5737 5.68815 21.6908 5.80532C21.808 5.9225 21.8739 6.08136 21.8741 6.24707V33.1221H5.62408V6.24707ZM9.37408 11.2471C9.37409 11.0813 9.43994 10.9223 9.55715 10.8051C9.67436 10.6879 9.83333 10.6221 9.99908 10.6221H14.9991C15.1648 10.6221 15.3238 10.6879 15.441 10.8051C15.5582 10.9223 15.6241 11.0813 15.6241 11.2471C15.6241 11.4128 15.5582 11.5718 15.441 11.689C15.3238 11.8062 15.1648 11.8721 14.9991 11.8721H9.99908C9.83333 11.8721 9.67436 11.8062 9.55715 11.689C9.43994 11.5718 9.37409 11.4128 9.37408 11.2471ZM18.1241 21.2471C18.1241 21.4128 18.0582 21.5718 17.941 21.689C17.8238 21.8062 17.6648 21.8721 17.4991 21.8721H12.4991C12.3333 21.8721 12.1744 21.8062 12.0571 21.689C11.9399 21.5718 11.8741 21.4128 11.8741 21.2471C11.8741 21.0813 11.9399 20.9223 12.0571 20.8051C12.1744 20.6879 12.3333 20.6221 12.4991 20.6221H17.4991C17.6648 20.6221 17.8238 20.6879 17.941 20.8051C18.0582 20.9223 18.1241 21.0813 18.1241 21.2471ZM15.6241 27.4971C15.6241 27.6628 15.5582 27.8218 15.441 27.939C15.3238 28.0562 15.1648 28.1221 14.9991 28.1221H9.99908C9.83332 28.1221 9.67435 28.0562 9.55714 27.939C9.43993 27.8218 9.37408 27.6628 9.37408 27.4971C9.37408 27.3313 9.43993 27.1723 9.55714 27.0551C9.67435 26.9379 9.83332 26.8721 9.99908 26.8721H14.9991C15.1648 26.8721 15.3238 26.9379 15.441 27.0551C15.5582 27.1723 15.6241 27.3313 15.6241 27.4971ZM30.6241 27.4971C30.6241 27.6628 30.5582 27.8218 30.441 27.939C30.3238 28.0562 30.1648 28.1221 29.9991 28.1221H27.4991C27.3333 28.1221 27.1744 28.0562 27.0571 27.939C26.9399 27.8218 26.8741 27.6628 26.8741 27.4971C26.8741 27.3313 26.9399 27.1723 27.0571 27.0551C27.1744 26.9379 27.3333 26.8721 27.4991 26.8721H29.9991C30.1648 26.8721 30.3238 26.9379 30.441 27.0551C30.5582 27.1723 30.6241 27.3313 30.6241 27.4971ZM26.8741 21.2471C26.8741 21.0813 26.9399 20.9223 27.0572 20.8051C27.1744 20.6879 27.3333 20.6221 27.4991 20.6221H29.9991C30.1648 20.6221 30.3238 20.6879 30.441 20.8051C30.5582 20.9223 30.6241 21.0813 30.6241 21.2471C30.6241 21.4128 30.5582 21.5718 30.441 21.689C30.3238 21.8062 30.1648 21.8721 29.9991 21.8721H27.4991C27.3333 21.8721 27.1744 21.8062 27.0572 21.689C26.9399 21.5718 26.8741 21.4128 26.8741 21.2471Z" fill="black"/>
</svg>
