<svg width="30" height="30" viewBox="0 0 30 30" fill="none" xmlns="http://www.w3.org/2000/svg">
<path d="M16.6963 26.9854H6.67969V4.07227H9.52734C9.77637 4.59082 10.3037 4.94824 10.9131 4.94824H19.0898C19.6992 4.94824 20.2295 4.58789 20.4756 4.07227H23.3086V17.4932C23.3086 17.8154 23.5723 18.0791 23.8945 18.0791C24.2168 18.0791 24.4805 17.8154 24.4805 17.4932V3.81738C24.4805 3.31055 24.0615 2.90039 23.5488 2.90039H20.54C20.3291 2.30566 19.7578 1.875 19.0898 1.875H10.9131C10.248 1.875 9.67676 2.30566 9.46289 2.90039H6.43652C5.92383 2.90039 5.50488 3.31055 5.50488 3.81738V27.2432C5.50488 27.75 5.92383 28.1602 6.43652 28.1602H16.6963C17.0186 28.1602 17.2822 27.8965 17.2822 27.5742C17.2822 27.252 17.0215 26.9854 16.6963 26.9854Z" fill="black"/>
<path d="M20.6953 11.8535C20.6953 11.5313 20.4316 11.2676 20.1094 11.2676H9.34863C9.19043 11.1123 8.97363 11.0156 8.73047 11.0156C8.24414 11.0156 7.85156 11.4082 7.85156 11.8945C7.85156 12.3809 8.24414 12.7734 8.73047 12.7734C9.00879 12.7734 9.25781 12.6445 9.41895 12.4395H20.1094C20.4316 12.4395 20.6953 12.1758 20.6953 11.8535ZM20.6953 15.8818C20.6953 15.5596 20.4316 15.2959 20.1094 15.2959H9.43652C9.27539 15.0791 9.02051 14.9414 8.73047 14.9414C8.24414 14.9414 7.85156 15.334 7.85156 15.8203C7.85156 16.3066 8.24414 16.6992 8.73047 16.6992C8.95898 16.6992 9.16699 16.6113 9.32519 16.4678H20.1094C20.4316 16.4678 20.6953 16.2041 20.6953 15.8818ZM9.37793 19.3535H9.35156C9.19336 19.1953 8.97363 19.0957 8.73047 19.0957C8.24414 19.0957 7.85156 19.4883 7.85156 19.9746C7.85156 20.4609 8.24414 20.8535 8.73047 20.8535C9.00879 20.8535 9.25488 20.7246 9.41602 20.5254H18.123C18.4453 20.5254 18.709 20.2617 18.709 19.9395C18.709 19.6172 18.4453 19.3535 18.123 19.3535H9.37793ZM27.8379 15.5098C27.5508 15.3604 27.1963 15.4717 27.0469 15.7588L21.3603 26.6895L17.1533 24.3867C16.8721 24.2314 16.5117 24.3369 16.3594 24.6182C16.2041 24.8994 16.3096 25.2598 16.5908 25.4121L21.3398 28.0137C21.6211 28.1689 21.9814 28.0635 22.1338 27.7822C22.1602 27.7324 22.1807 27.6797 22.1924 27.627L28.0869 16.3037C28.2363 16.0166 28.125 15.6592 27.8379 15.5098Z" fill="black"/>
<path d="M21.2051 9.81836H8.63672C8.20312 9.81836 7.85156 9.4668 7.85156 9.0332V6.64844C7.85156 6.21484 8.20312 5.86328 8.63672 5.86328H21.2051C21.6387 5.86328 21.9902 6.21484 21.9902 6.64844V9.0332C21.9902 9.4668 21.6387 9.81836 21.2051 9.81836Z" fill="black"/>
</svg>
