<svg width="16" height="18" viewBox="0 0 16 18" fill="none" xmlns="http://www.w3.org/2000/svg">
<g clip-path="url(#clip0_2032_213)">
<path d="M4.82033 12.7368C4.5544 12.7368 4.33738 12.5273 4.33738 12.2695C4.33738 12.0117 4.55287 11.8022 4.82033 11.8022H7.95339C8.21931 11.8022 8.43634 12.0117 8.43634 12.2695C8.43634 12.5273 8.22084 12.7368 7.95339 12.7368H4.82033ZM4.82033 6.19189C4.5544 6.19189 4.33891 5.98535 4.33891 5.73047C4.33891 5.47559 4.5544 5.26904 4.82033 5.26904H11.1797C11.4456 5.26904 11.6611 5.47559 11.6611 5.73047C11.6611 5.98535 11.4456 6.19189 11.1797 6.19189H4.82033ZM10.174 15.917C9.96619 15.7588 9.93104 15.4688 10.0976 15.2695C10.2627 15.0703 10.5653 15.0366 10.7731 15.1963L12.2357 16.3081L15.0188 13.0459C15.1869 12.8481 15.4911 12.8203 15.6959 12.9814C15.9022 13.1426 15.9312 13.4341 15.7631 13.6304L12.6805 17.2441C12.5139 17.439 12.2159 17.4697 12.0096 17.313L10.174 15.917ZM8.68851 17.0771C8.95444 17.0771 9.16993 17.2837 9.16993 17.5386C9.16993 17.7935 8.95444 18 8.68851 18H1.12026C0.811539 18 0.531856 17.8799 0.328589 17.6851C0.125322 17.4902 0 17.2222 0 16.9263V1.07373C0 0.777832 0.125322 0.509766 0.328589 0.314941C0.531856 0.120117 0.811539 0 1.12026 0H14.8782C15.1869 0 15.4666 0.120117 15.6699 0.314941C15.8732 0.509766 15.9985 0.777832 15.9985 1.07373V10.6348C15.9985 10.8896 15.783 11.0962 15.5171 11.0962C15.2511 11.0962 15.0356 10.8896 15.0356 10.6348V1.07373C15.0356 1.03271 15.0173 0.994629 14.9898 0.966797C14.9607 0.938965 14.921 0.922852 14.8782 0.922852H1.12026C1.07747 0.922852 1.03773 0.94043 1.00869 0.966797C0.981183 0.996094 0.962843 1.03271 0.962843 1.07373V16.9248C0.962843 16.9658 0.981183 17.0039 1.00869 17.0317C1.03773 17.0596 1.07747 17.0757 1.12026 17.0757H8.68851V17.0771ZM4.82033 9.46142C4.5544 9.46142 4.33891 9.25488 4.33891 9C4.33891 8.74512 4.5544 8.53857 4.82033 8.53857H11.1797C11.4456 8.53857 11.6611 8.74512 11.6611 9C11.6611 9.25488 11.4456 9.46142 11.1797 9.46142H4.82033Z" fill="black"/>
</g>
<defs>
<clipPath id="clip0_2032_213">
<rect width="16" height="18" fill="white"/>
</clipPath>
</defs>
</svg>
