<svg width="16" height="22" viewBox="0 0 16 22" fill="none" xmlns="http://www.w3.org/2000/svg">
<path d="M1.9375 2.5625V19.4375" stroke="#2D2D2D" stroke-width="0.5" stroke-linejoin="round"/>
<path d="M13.8125 2.5625V19.4375" stroke="#2D2D2D" stroke-width="0.5" stroke-linejoin="round"/>
<path d="M14.125 19.4375H12.3125C14.2188 17.8438 11.5937 14.4375 8.5 11C11.5937 7.5625 14.2188 4.15625 12.3125 2.5625H14.125C14.4688 2.5625 14.75 2.28125 14.75 1.9375C14.75 1.59375 14.4688 1.3125 14.125 1.3125H1.625C1.28125 1.3125 1 1.59375 1 1.9375C1 2.28125 1.28125 2.5625 1.625 2.5625H12.5625H3.46875C1.5625 4.15625 4.1875 7.5625 7.28125 11C4.1875 14.4375 1.5625 17.8438 3.46875 19.4375H1.625C1.28125 19.4375 1 19.7187 1 20.0625C1 20.4063 1.28125 20.6875 1.625 20.6875H14.125C14.4688 20.6875 14.75 20.4063 14.75 20.0625C14.75 19.7187 14.4688 19.4375 14.125 19.4375Z" stroke="#2D2D2D" stroke-width="0.5" stroke-linejoin="round"/>
<path d="M9.35938 14.2031C10.7031 15.8594 11.875 17.6563 11.5938 18.3125" stroke="#2D2D2D" stroke-width="0.5" stroke-linecap="round" stroke-linejoin="round"/>
</svg>
