<svg width="30" height="30" viewBox="0 0 30 30" fill="none" xmlns="http://www.w3.org/2000/svg">
<g clip-path="url(#clip0_222_3590)">
<path d="M15 0C6.73002 0 0 6.72873 0 15C0 23.27 6.73002 30 15 30C23.2713 30 30 23.27 30 15C30 6.72873 23.2713 0 15 0ZM23.6538 15.4775C23.59 15.63 23.4988 15.7688 23.3838 15.8837L18.3838 20.8837C18.14 21.1274 17.8201 21.25 17.5 21.25C17.18 21.25 16.8613 21.1274 16.6163 20.8837C16.1288 20.395 16.1288 19.6037 16.6163 19.1162L19.4825 16.25H7.5C6.81 16.25 6.25002 15.69 6.25002 15C6.25002 14.3088 6.81 13.75 7.5 13.75H19.4825L16.6163 10.8838C16.1288 10.3951 16.1288 9.60381 16.6163 9.11631C17.105 8.62758 17.8962 8.62758 18.3837 9.11631L23.3837 14.1151C23.4987 14.2301 23.59 14.3688 23.6537 14.5226C23.78 14.8275 23.78 15.1713 23.6538 15.4775Z" fill="white"/>
</g>
<defs>
<clipPath id="clip0_222_3590">
<rect width="30" height="30" fill="white"/>
</clipPath>
</defs>
</svg>
