<svg width="40" height="40" viewBox="0 0 40 40" fill="none" xmlns="http://www.w3.org/2000/svg">
<path d="M37.5 33.125H35.6241V16.25C35.6235 15.7529 35.4258 15.2763 35.0743 14.9248C34.7228 14.5733 34.2462 14.3756 33.7491 14.375H23.1241V6.25C23.1235 5.75289 22.9258 5.2763 22.5743 4.92479C22.2228 4.57328 21.7462 4.37556 21.2491 4.375H6.24908C5.75197 4.37556 5.27538 4.57328 4.92387 4.92479C4.57236 5.2763 4.37464 5.75289 4.37408 6.25V33.125H2.5C2.33424 33.125 2.17527 33.1908 2.05806 33.3081C1.94085 33.4253 1.875 33.5842 1.875 33.75C1.875 33.9158 1.94085 34.0747 2.05806 34.1919C2.17527 34.3092 2.33424 34.375 2.5 34.375H37.5C37.6658 34.375 37.8247 34.3092 37.9419 34.1919C38.0592 34.0747 38.125 33.9158 38.125 33.75C38.125 33.5842 38.0592 33.4253 37.9419 33.3081C37.8247 33.1908 37.6658 33.125 37.5 33.125ZM33.7491 15.625C33.9148 15.6252 34.0737 15.6911 34.1908 15.8083C34.308 15.9254 34.3739 16.0843 34.3741 16.25V33.125H23.1241V15.625H33.7491ZM5.62408 6.25C5.62426 6.08429 5.69017 5.92543 5.80734 5.80825C5.92451 5.69108 6.08338 5.62518 6.24908 5.625H21.2491C21.4148 5.62518 21.5737 5.69108 21.6908 5.80825C21.808 5.92543 21.8739 6.08429 21.8741 6.25V33.125H5.62408V6.25ZM9.37408 11.25C9.37409 11.0842 9.43994 10.9253 9.55715 10.8081C9.67436 10.6909 9.83333 10.625 9.99908 10.625H14.9991C15.1648 10.625 15.3238 10.6908 15.441 10.8081C15.5582 10.9253 15.6241 11.0842 15.6241 11.25C15.6241 11.4158 15.5582 11.5747 15.441 11.6919C15.3238 11.8092 15.1648 11.875 14.9991 11.875H9.99908C9.83333 11.875 9.67436 11.8091 9.55715 11.6919C9.43994 11.5747 9.37409 11.4158 9.37408 11.25ZM18.1241 21.25C18.1241 21.4158 18.0582 21.5747 17.941 21.6919C17.8238 21.8091 17.6648 21.875 17.4991 21.875H12.4991C12.3333 21.875 12.1744 21.8092 12.0571 21.6919C11.9399 21.5747 11.8741 21.4158 11.8741 21.25C11.8741 21.0842 11.9399 20.9253 12.0571 20.8081C12.1744 20.6908 12.3333 20.625 12.4991 20.625H17.4991C17.6648 20.625 17.8238 20.6909 17.941 20.8081C18.0582 20.9253 18.1241 21.0842 18.1241 21.25ZM15.6241 27.5C15.6241 27.6658 15.5582 27.8247 15.441 27.9419C15.3238 28.0591 15.1648 28.125 14.9991 28.125H9.99908C9.83332 28.125 9.67435 28.0592 9.55714 27.9419C9.43993 27.8247 9.37408 27.6658 9.37408 27.5C9.37408 27.3342 9.43993 27.1753 9.55714 27.0581C9.67435 26.9408 9.83332 26.875 9.99908 26.875H14.9991C15.1648 26.875 15.3238 26.9409 15.441 27.0581C15.5582 27.1753 15.6241 27.3342 15.6241 27.5ZM30.6241 27.5C30.6241 27.6658 30.5582 27.8247 30.441 27.9419C30.3238 28.0591 30.1648 28.125 29.9991 28.125H27.4991C27.3333 28.125 27.1744 28.0592 27.0571 27.9419C26.9399 27.8247 26.8741 27.6658 26.8741 27.5C26.8741 27.3342 26.9399 27.1753 27.0571 27.0581C27.1744 26.9408 27.3333 26.875 27.4991 26.875H29.9991C30.1648 26.875 30.3238 26.9409 30.441 27.0581C30.5582 27.1753 30.6241 27.3342 30.6241 27.5ZM26.8741 21.25C26.8741 21.0842 26.9399 20.9253 27.0572 20.8081C27.1744 20.6909 27.3333 20.625 27.4991 20.625H29.9991C30.1648 20.625 30.3238 20.6908 30.441 20.8081C30.5582 20.9253 30.6241 21.0842 30.6241 21.25C30.6241 21.4158 30.5582 21.5747 30.441 21.6919C30.3238 21.8092 30.1648 21.875 29.9991 21.875H27.4991C27.3333 21.875 27.1744 21.8091 27.0572 21.6919C26.9399 21.5747 26.8741 21.4158 26.8741 21.25Z" fill="black"/>
</svg>
