<svg width="30" height="30" viewBox="0 0 30 30" fill="none" xmlns="http://www.w3.org/2000/svg">
<path d="M12.1905 20.4C11.157 22.1955 11.853 23.67 13.2885 24.498C14.7225 25.3275 16.35 25.1955 17.3865 23.4C18.42 21.6075 24.957 5.6025 24.3885 5.274C23.82 4.9455 13.2255 18.606 12.1905 20.4ZM15 9C15.657 9 16.296 9.0555 16.9215 9.1635C17.5785 8.34 18.3135 7.4325 19.029 6.5715C17.7196 6.19251 16.3632 6.00011 15 6C6.5895 6 0 13.0935 0 22.149C0 22.7055 0.024 23.262 0.0735 23.8035C0.147 24.63 0.8835 25.236 1.6995 25.1655C2.526 25.089 3.135 24.363 3.0615 23.5365C3.02053 23.0751 3.00001 22.6122 3 22.149C3 14.775 8.271 9 15 9ZM25.8285 10.875C25.41 12 24.9675 13.146 24.5775 14.136C26.1 16.341 27 19.107 27 22.149C27 22.623 26.9775 23.1015 26.9355 23.5635C26.9162 23.9505 27.0472 24.33 27.3013 24.6226C27.5553 24.9153 27.9126 25.0984 28.2985 25.1336C28.6844 25.1689 29.069 25.0536 29.3718 24.8118C29.6747 24.5701 29.8724 24.2206 29.9235 23.8365C29.973 23.2815 30 22.7145 30 22.149C30 17.718 28.4205 13.764 25.8285 10.875Z" fill="white"/>
</svg>
