<svg width="30" height="30" viewBox="0 0 30 30" fill="none" xmlns="http://www.w3.org/2000/svg">
<path fill-rule="evenodd" clip-rule="evenodd" d="M20.625 16.2675V23.125C20.625 23.4702 20.3452 23.75 20 23.75C19.6548 23.75 19.375 23.4702 19.375 23.125V16.2675H15.9779C15.783 16.2675 15.6254 16.4252 15.6254 16.6212V25H24.0212C24.2161 25 24.375 24.8411 24.375 24.6462V4.10375C24.375 3.90892 24.2161 3.75 24.0212 3.75H20.9788C20.7839 3.75 20.625 3.90892 20.625 4.10375V15.0175H21.2504C21.5956 15.0175 21.8754 15.2973 21.8754 15.6425C21.8754 15.9877 21.5956 16.2675 21.2504 16.2675H20.625ZM19.375 15.0175H15.9779C15.8566 15.0175 15.7385 15.0309 15.625 15.0564V11.6362C15.625 10.7501 14.9067 10.0312 14.0212 10.0312H10.9787C10.0932 10.0312 9.375 10.7501 9.375 11.6362V19.9829H5.97875C5.09389 19.9829 4.375 20.7011 4.375 21.5854V24.6291C4.375 25.5143 5.09357 26.2329 5.97875 26.2329H9.85406C9.90087 26.2441 9.94975 26.25 10 26.25C10.0502 26.25 10.0991 26.2441 10.1459 26.2329H12.5C12.8452 26.2329 13.125 25.9531 13.125 25.6079C13.125 25.2627 12.8452 24.9829 12.5 24.9829H10.625V11.6362C10.625 11.4402 10.7839 11.2812 10.9787 11.2812H14.0212C14.2161 11.2812 14.375 11.4402 14.375 11.6362V26.875C14.375 27.2202 14.6548 27.5 15 27.5C15.3452 27.5 15.625 27.2202 15.625 26.875V26.25H24.0212H24.0257C24.9088 26.2476 25.625 25.5299 25.625 24.6462V4.10375C25.625 3.21857 24.9064 2.5 24.0212 2.5H20.9788C20.0936 2.5 19.375 3.21857 19.375 4.10375V15.0175ZM9.375 24.9829V21.2329H5.97875C5.784 21.2329 5.625 21.3917 5.625 21.5854V24.6291C5.625 24.8239 5.78392 24.9829 5.97875 24.9829H9.375Z" fill="black"/>
</svg>
