<svg width="30" height="30" viewBox="0 0 30 30" fill="none" xmlns="http://www.w3.org/2000/svg">
<path fill-rule="evenodd" clip-rule="evenodd" d="M18.75 17.8125C16.6789 17.8125 15 19.4914 15 21.5625C15 23.6336 16.6789 25.3125 18.75 25.3125C20.8211 25.3125 22.5 23.6336 22.5 21.5625C22.5 19.4914 20.8211 17.8125 18.75 17.8125ZM13.125 21.5625C13.125 18.4559 15.6434 15.9375 18.75 15.9375C21.8566 15.9375 24.375 18.4559 24.375 21.5625C24.375 24.6691 21.8566 27.1875 18.75 27.1875C15.6434 27.1875 13.125 24.6691 13.125 21.5625Z" fill="white"/>
<path fill-rule="evenodd" clip-rule="evenodd" d="M19.6875 10.3125H10.3125V8.4375H19.6875V10.3125Z" fill="white"/>
<path fill-rule="evenodd" clip-rule="evenodd" d="M19.6875 14.0625H10.3125V12.1875H19.6875V14.0625Z" fill="white"/>
<path fill-rule="evenodd" clip-rule="evenodd" d="M6.5625 3.75H20.0759L23.4375 7.11168V15H21.5625V7.88832L19.2991 5.625H8.4375V24.375H12.1875V26.25H6.5625V3.75Z" fill="white"/>
<path fill-rule="evenodd" clip-rule="evenodd" d="M12.1875 17.8125H10.3125V15.9375H12.1875V17.8125Z" fill="white"/>
<path fill-rule="evenodd" clip-rule="evenodd" d="M16.9739 20.1061L18.6509 19.2676L19.3293 20.6243H20.6249V22.4993H18.1705L16.9739 20.1061Z" fill="white"/>
</svg>
