<svg width="15" height="16" viewBox="0 0 15 16" fill="none" xmlns="http://www.w3.org/2000/svg">
<path d="M3.40991 8.80255V11.5603C3.40991 11.9411 3.71516 12.2497 4.09168 12.2497H6.81877C6.99957 12.2497 7.17297 12.1771 7.30082 12.0478L14.8003 4.46397C15.0665 4.19472 15.0665 3.75821 14.8003 3.48896L12.0732 0.73121C11.9454 0.601964 11.772 0.529297 11.5912 0.529297C11.4104 0.529297 11.2369 0.601964 11.1091 0.731256L3.60963 8.31507C3.48173 8.44432 3.40991 8.61971 3.40991 8.80255ZM4.77345 9.08812L11.5912 2.19374L13.3541 3.97649L6.53638 10.8709H4.77345V9.08812Z" fill="white"/>
<path d="M14.3172 7.42372C13.9407 7.42372 13.6355 7.73241 13.6355 8.11316V14.3181H1.36355V1.90817H7.49951C7.87603 1.90817 8.18128 1.59949 8.18128 1.21873C8.18128 0.837981 7.87603 0.529297 7.49951 0.529297H0.681773C0.305253 0.529297 0 0.837981 0 1.21873V15.0075C0 15.3882 0.305253 15.6969 0.681773 15.6969H14.3172C14.6938 15.6969 14.999 15.3882 14.999 15.0075V8.11316C14.999 7.73236 14.6938 7.42372 14.3172 7.42372Z" fill="white"/>
</svg>
