<svg width="18" height="18" viewBox="0 0 18 18" fill="none" xmlns="http://www.w3.org/2000/svg">
<path fill-rule="evenodd" clip-rule="evenodd" d="M4.5 0.75C3.25736 0.75 2.25 1.75736 2.25 3V15C2.25 16.2427 3.25736 17.25 4.5 17.25H13.5C14.7427 17.25 15.75 16.2427 15.75 15V6.62132C15.75 6.02459 15.5129 5.45229 15.091 5.03033L11.4697 1.40901C11.0477 0.987053 10.4754 0.75 9.8787 0.75H4.5ZM3.75 3C3.75 2.58579 4.08579 2.25 4.5 2.25H9V6C9 6.82843 9.67155 7.5 10.5 7.5H14.25V15C14.25 15.4142 13.9142 15.75 13.5 15.75H4.5C4.08579 15.75 3.75 15.4142 3.75 15V3ZM13.9394 6L10.5 2.56066V6H13.9394Z" fill="#2D2D2D"/>
</svg>
