<svg width="30" height="30" viewBox="0 0 30 30" fill="none" xmlns="http://www.w3.org/2000/svg">
<path d="M27.3103 11.6878C27.1181 11.2875 26.716 11.0166 26.25 11.0166L13.0697 11.0241L17.0044 2.35969C17.07 2.21719 17.1085 2.05125 17.1085 1.87594C17.1085 1.22812 16.5835 0.704063 15.9366 0.703125H7.49908C6.95252 0.703125 6.49408 1.07719 6.36377 1.58344L6.3619 1.59187L2.6119 16.5919C2.5894 16.6772 2.57721 16.7747 2.57721 16.8759C2.57721 17.5228 3.10221 18.0478 3.74908 18.0478H14.4356L11.9869 27.8419C11.9644 27.9272 11.9522 28.0256 11.9522 28.1259C11.9522 28.5806 12.2119 28.9744 12.5906 29.1675L12.5972 29.1703C12.7491 29.25 12.93 29.2969 13.1213 29.2969C13.1222 29.2969 13.1231 29.2969 13.1241 29.2969C13.4878 29.2969 13.8122 29.1319 14.0278 28.8722L14.0297 28.8703L27.1547 12.9337C27.3216 12.7331 27.4228 12.4725 27.4228 12.1884C27.4228 12.0066 27.3816 11.8341 27.3075 11.6812L27.3103 11.6878ZM15.5213 23.3719L17.0747 17.1591C17.0972 17.0737 17.1094 16.9762 17.1094 16.875C17.1094 16.2281 16.5844 15.7031 15.9375 15.7031H5.25096L8.41502 3.04688H14.1188L10.1841 11.7122C10.1175 11.8547 10.0791 12.0216 10.0791 12.1969C10.0791 12.8438 10.6031 13.3688 11.251 13.3688L23.7666 13.3612L15.5213 23.3719Z" fill="black"/>
</svg>
