<svg width="30" height="30" viewBox="0 0 30 30" fill="none" xmlns="http://www.w3.org/2000/svg">
<path d="M3.75 10.5H26.25M8.75 1.75V4.25M21.25 1.75V4.25M7.75 24.25H22.25C23.6501 24.25 24.3503 24.25 24.885 23.9775C25.3554 23.7379 25.7379 23.3554 25.9775 22.885C26.25 22.3503 26.25 21.6501 26.25 20.25V8.25C26.25 6.84986 26.25 6.1498 25.9775 5.61503C25.7379 5.14461 25.3554 4.76216 24.885 4.52249C24.3503 4.25 23.6501 4.25 22.25 4.25H7.75C6.34987 4.25 5.6498 4.25 5.11503 4.52249C4.64461 4.76216 4.26216 5.14461 4.02249 5.61503C3.75 6.1498 3.75 6.84986 3.75 8.25V20.25C3.75 21.6501 3.75 22.3503 4.02249 22.885C4.26216 23.3554 4.64461 23.7379 5.11503 23.9775C5.6498 24.25 6.34986 24.25 7.75 24.25Z" stroke="#5C5C5C" stroke-linecap="round" stroke-linejoin="round"/>
</svg>
