<svg width="18" height="18" viewBox="0 0 18 18" fill="none" xmlns="http://www.w3.org/2000/svg">
<path fill-rule="evenodd" clip-rule="evenodd" d="M10.6875 5.625C10.998 5.625 11.25 5.37356 11.25 5.0625V2.8125C11.25 2.50144 10.998 2.25 10.6875 2.25C10.377 2.25 10.125 2.50144 10.125 2.8125V5.0625C10.125 5.37356 10.377 5.625 10.6875 5.625ZM16.875 15.75C16.875 16.371 16.371 16.875 15.75 16.875H2.25C1.629 16.875 1.125 16.371 1.125 15.75V2.25C1.125 1.629 1.629 1.125 2.25 1.125H3.375V6.75C3.375 7.371 3.879 7.875 4.5 7.875H13.5C14.121 7.875 14.625 7.371 14.625 6.75V1.125H15.75C16.371 1.125 16.875 1.629 16.875 2.25V15.75ZM4.5 1.125H13.5V6.1875C13.5 6.49856 13.248 6.75 12.9375 6.75H5.0625C4.752 6.75 4.5 6.49856 4.5 6.1875V1.125ZM15.75 0H2.25C1.00744 0 0 1.00744 0 2.25V15.75C0 16.9926 1.00744 18 2.25 18H15.75C16.9926 18 18 16.9926 18 15.75V2.25C18 1.00744 16.9926 0 15.75 0Z" fill="white"/>
</svg>
