<svg width="30" height="30" viewBox="0 0 30 30" fill="none" xmlns="http://www.w3.org/2000/svg">
<path d="M18.125 16.25H26.8749C27.2199 16.25 27.5 15.97 27.5 15.625C27.5 15.28 27.22 15 26.875 15H18.125C17.78 15 17.4999 15.28 17.4999 15.625C17.4999 15.97 17.78 16.25 18.125 16.25Z" fill="#5C5C5C"/>
<path d="M18.125 12.5H26.8749C27.2199 12.5 27.5 12.22 27.5 11.875C27.5 11.53 27.22 11.25 26.875 11.25H18.125C17.78 11.25 17.4999 11.53 17.4999 11.875C17.4999 12.22 17.78 12.5 18.125 12.5Z" fill="#5C5C5C"/>
<path d="M18.125 20H26.8749C27.2199 20 27.5 19.72 27.5 19.375C27.5 19.03 27.22 18.75 26.875 18.75H18.125C17.78 18.75 17.4999 19.03 17.4999 19.375C17.4999 19.72 17.78 20 18.125 20Z" fill="#5C5C5C"/>
<path d="M18.125 23.75H23.1249C23.4699 23.75 23.75 23.47 23.75 23.125C23.75 22.78 23.47 22.5 23.125 22.5H18.125C17.78 22.5 17.5 22.78 17.5 23.125C17.5 23.47 17.78 23.75 18.125 23.75Z" fill="#5C5C5C"/>
<path d="M8.12502 3.75C7.78002 3.75 7.5 4.03002 7.5 4.37502C7.5 4.72002 7.78002 5.00004 8.12502 5.00004C8.47002 5.00004 8.75004 4.72002 8.75004 4.37502C8.75004 4.03002 8.47002 3.75 8.12502 3.75Z" fill="#5C5C5C"/>
<path d="M26.875 1.25H3.12498C1.40127 1.25 0 2.6525 0 4.37504V25.6251C0 27.3475 1.40127 28.75 3.12498 28.75H26.875C28.5987 28.75 29.9999 27.3475 29.9999 25.6251V4.37504C30 2.6525 28.5987 1.25 26.875 1.25ZM28.75 25.625C28.75 26.6588 27.9088 27.5 26.875 27.5H3.12498C2.09121 27.5 1.24998 26.6588 1.24998 25.625V7.50002H28.75V25.625H28.75ZM28.75 6.25004H1.24998V4.37504C1.24998 3.34127 2.09121 2.50004 3.12498 2.50004H26.875C27.9087 2.50004 28.75 3.34127 28.75 4.37504V6.25004H28.75Z" fill="#5C5C5C"/>
<path d="M3.12496 3.75C2.77996 3.75 2.49994 4.03002 2.49994 4.37502C2.49994 4.72002 2.77996 5.00004 3.12496 5.00004C3.46996 5.00004 3.74998 4.72002 3.74998 4.37502C3.74998 4.03002 3.46996 3.75 3.12496 3.75Z" fill="#5C5C5C"/>
<path d="M3.12496 23.75L15.6249 23.7487C15.9699 23.7487 16.25 23.4687 16.25 23.1237C16.25 21.5574 15.1875 20.1975 13.6712 19.8174L11.795 19.3487L11.7162 19.0349C12.2025 18.4974 12.5487 17.8112 12.6924 17.0987C13.0262 16.9262 13.2674 16.5987 13.3175 16.205L13.4525 15.1175C13.4937 14.7875 13.3925 14.4549 13.1737 14.205C13.1062 14.1287 13.0287 14.0612 12.9462 14.005L12.9774 13.3412L13.0912 13.2275C13.4137 12.885 13.8499 12.1538 13.1599 11.0987C12.8324 10.5975 12.1574 10 10.8049 10C10.4062 10 9.5074 10 8.63488 10.5463C6.06238 10.6375 5.75986 12.0238 5.75986 13.07C5.75986 13.2763 5.79736 13.6625 5.83234 13.985C5.73982 14.0438 5.65486 14.1163 5.58109 14.2C5.35861 14.4525 5.25607 14.7862 5.29861 15.1175L5.43361 16.205C5.48488 16.6125 5.74363 16.95 6.12484 17.1163C6.26482 17.7975 6.59236 18.4575 7.04857 18.9812L6.95734 19.3487L5.08111 19.8175C3.56236 20.1975 2.49988 21.5575 2.49988 23.125C2.49988 23.2912 2.56486 23.4512 2.6824 23.5675C2.8 23.6837 2.95873 23.75 3.12496 23.75ZM5.38621 21.0287L7.62619 20.4688C7.84996 20.4125 8.02492 20.2375 8.08117 20.0138L8.34742 18.9476C8.40244 18.7275 8.33365 18.495 8.16742 18.3401C7.68115 17.8826 7.35865 17.2138 7.30615 16.5513C7.2799 16.2276 7.0024 16.0476 6.67615 16.0476L6.5149 15.0526C6.6949 15.0526 6.86488 14.9764 6.98365 14.8414C7.10242 14.7076 7.15738 14.5289 7.13488 14.3501C7.08736 13.9726 7.01113 13.2901 7.01113 13.0701C7.01113 12.4226 7.01113 11.8114 8.83861 11.7926C8.96611 11.7914 9.09109 11.7514 9.19609 11.6764C9.79123 11.25 10.4762 11.25 10.805 11.25C11.45 11.25 11.8787 11.4237 12.1137 11.7825C12.3675 12.1712 12.2637 12.2812 12.1937 12.3575L11.9225 12.6287C11.8125 12.7387 11.7474 12.8849 11.7399 13.04L11.6737 14.4C11.6662 14.57 11.6861 14.6887 11.8024 14.8125C11.9199 14.9362 12.0399 14.9612 12.2099 14.9625L12.1299 15.9787C11.8037 15.9787 11.5337 16.2287 11.5074 16.5537C11.4524 17.2275 11.1062 17.9262 10.6037 18.3774C10.4324 18.5312 10.3587 18.7687 10.415 18.9937L10.67 20.0149C10.7262 20.2387 10.8999 20.4149 11.1249 20.4699L13.3662 21.0299C14.1187 21.2186 14.6937 21.7861 14.9087 22.4999L3.84121 22.4986C4.05624 21.7862 4.63246 21.2187 5.38621 21.0287Z" fill="#5C5C5C"/>
<path d="M5.62502 3.75C5.28002 3.75 5 4.03002 5 4.37502C5 4.72002 5.28002 4.99998 5.62502 4.99998C5.97002 4.99998 6.25004 4.71996 6.25004 4.37496C6.25004 4.02996 5.97002 3.75 5.62502 3.75Z" fill="#5C5C5C"/>
</svg>
