<svg width="30" height="30" viewBox="0 0 30 30" fill="none" xmlns="http://www.w3.org/2000/svg">
<path d="M23.2937 1.03672H17.0734C17.0677 1.03672 17.062 1.03737 17.0563 1.03756C16.5896 0.408531 15.8417 0 15 0C14.1583 0 13.4104 0.408531 12.9437 1.03756C12.938 1.03737 12.9323 1.03672 12.9266 1.03672H6.70626C5.00922 1.03672 3.62851 2.41743 3.62851 4.11447V26.9222C3.62851 28.6193 5.00922 30 6.70626 30H23.2937C24.9908 30 26.3715 28.6193 26.3715 26.9222V4.11447C26.3715 2.41743 24.9908 1.03672 23.2937 1.03672ZM15 0.971922C15.8754 0.971922 16.5875 1.68408 16.5875 2.5594V3.07775C16.5875 3.34613 16.805 3.56371 17.0734 3.56371H19.1469C19.4506 3.56371 19.6976 3.81078 19.6976 4.11447C19.6976 4.41816 19.4506 4.66523 19.1469 4.66523H10.8531C10.5494 4.66523 10.3024 4.41816 10.3024 4.11447C10.3024 3.81078 10.5494 3.56371 10.8531 3.56371H12.9266C13.195 3.56371 13.4125 3.34613 13.4125 3.07775V2.5594C13.4125 1.68408 14.1246 0.971922 15 0.971922ZM10.8531 5.63715H19.1469C19.9865 5.63715 20.6695 4.95408 20.6695 4.11447C20.6695 4.10359 20.669 4.09289 20.6687 4.08207H23.2937C23.3116 4.08207 23.3261 4.09659 23.3261 4.11447V26.9222C23.3261 26.9401 23.3116 26.9546 23.2937 26.9546H6.70626C6.68844 26.9546 6.67387 26.9401 6.67387 26.9222V4.11447C6.67387 4.09659 6.68844 4.08207 6.70626 4.08207H9.3313C9.33104 4.09289 9.33045 4.10359 9.33045 4.11447C9.33045 4.95408 10.0135 5.63715 10.8531 5.63715ZM25.3996 26.9222C25.3996 28.0834 24.4549 29.0281 23.2937 29.0281H6.70626C5.54508 29.0281 4.60043 28.0834 4.60043 26.9222V4.11447C4.60043 2.95335 5.54508 2.00864 6.70626 2.00864H12.5009C12.4618 2.18618 12.4406 2.37032 12.4406 2.5594V2.59179H10.8531C10.3981 2.59179 9.98929 2.79272 9.71009 3.11015H6.70626C6.15246 3.11015 5.70194 3.56067 5.70194 4.11447V26.9222C5.70194 27.476 6.15246 27.9266 6.70626 27.9266H23.2937C23.8475 27.9266 24.2981 27.476 24.2981 26.9222V4.11447C24.2981 3.56067 23.8475 3.11015 23.2937 3.11015H20.2899C20.0106 2.79272 19.6019 2.59179 19.1469 2.59179H17.5594V2.5594C17.5594 2.37032 17.5381 2.18618 17.4991 2.00864H23.2937C24.4549 2.00864 25.3996 2.95335 25.3996 4.11447V26.9222Z" fill="black"/>
<path d="M15 4.07895C15.2684 4.07895 15.486 3.86137 15.486 3.59299V2.55627C15.486 2.28789 15.2684 2.07031 15 2.07031C14.7316 2.07031 14.514 2.28789 14.514 2.55627V3.59299C14.514 3.86137 14.7316 4.07895 15 4.07895Z" fill="black"/>
<path d="M14.4816 11.3391H20.7019C20.9704 11.3391 21.1879 11.1215 21.1879 10.8531C21.1879 10.5848 20.9704 10.3672 20.7019 10.3672H14.4816C14.2132 10.3672 13.9957 10.5848 13.9957 10.8531C13.9957 11.1215 14.2132 11.3391 14.4816 11.3391Z" fill="black"/>
<path d="M8.95438 10.5072C8.7646 10.697 8.7646 11.0047 8.95438 11.1944L9.9911 12.2311C10.086 12.326 10.2104 12.3735 10.3348 12.3735C10.4591 12.3735 10.5835 12.326 10.6784 12.2311L12.7519 10.1577C12.9417 9.96789 12.9417 9.66018 12.7519 9.47046C12.562 9.28068 12.2544 9.28068 12.0646 9.47046L10.3348 11.2003L9.64172 10.5072C9.45187 10.3174 9.14423 10.3174 8.95438 10.5072Z" fill="black"/>
<path d="M14.4816 16.5188H20.7019C20.9704 16.5188 21.1879 16.3012 21.1879 16.0328C21.1879 15.7645 20.9704 15.5469 20.7019 15.5469H14.4816C14.2132 15.5469 13.9957 15.7645 13.9957 16.0328C13.9957 16.3012 14.2132 16.5188 14.4816 16.5188Z" fill="black"/>
<path d="M12.0645 14.658L10.3348 16.3878L9.64173 15.6947C9.45188 15.5049 9.14423 15.5049 8.95445 15.6947C8.76466 15.8845 8.76466 16.1922 8.95445 16.3819L9.99117 17.4186C10.0861 17.5135 10.2105 17.561 10.3348 17.561C10.4592 17.561 10.5836 17.5135 10.6785 17.4186L12.7519 15.3452C12.9417 15.1554 12.9417 14.8477 12.7519 14.658C12.562 14.4682 12.2544 14.4682 12.0645 14.658Z" fill="black"/>
<path d="M14.4816 21.7063H20.7019C20.9704 21.7063 21.1879 21.4887 21.1879 21.2203C21.1879 20.952 20.9704 20.7344 20.7019 20.7344H14.4816C14.2132 20.7344 13.9957 20.952 13.9957 21.2203C13.9957 21.4887 14.2132 21.7063 14.4816 21.7063Z" fill="black"/>
<path d="M12.0645 19.8377L10.3348 21.5675L9.64173 20.8744C9.45188 20.6846 9.14423 20.6846 8.95445 20.8744C8.76466 21.0642 8.76466 21.3719 8.95445 21.5616L9.99117 22.5983C10.0861 22.6932 10.2105 22.7407 10.3348 22.7407C10.4592 22.7407 10.5836 22.6932 10.6785 22.5983L12.7519 20.5249C12.9417 20.3351 12.9417 20.0274 12.7519 19.8377C12.562 19.6479 12.2544 19.6479 12.0645 19.8377Z" fill="black"/>
</svg>
