<svg width="30" height="30" viewBox="0 0 30 30" fill="none" xmlns="http://www.w3.org/2000/svg">
<path d="M24.4125 10L17.5 3.0875C17.3244 2.91164 17.086 2.81272 16.8375 2.8125H13.75C12.8384 2.8125 11.964 3.17466 11.3193 3.81932C10.6747 4.46397 10.3125 5.33831 10.3125 6.25V7.8125H8.75C7.83831 7.8125 6.96397 8.17466 6.31932 8.81932C5.67466 9.46397 5.3125 10.3383 5.3125 11.25V23.75C5.3125 24.6616 5.67466 25.536 6.31932 26.1806C6.96397 26.8254 7.83831 27.1875 8.75 27.1875H17.5C18.4116 27.1875 19.286 26.8254 19.9306 26.1806C20.5754 25.536 20.9375 24.6616 20.9375 23.75V22.1875H21.25C22.1616 22.1875 23.036 21.8254 23.6806 21.1806C24.3254 20.536 24.6875 19.6616 24.6875 18.75V10.625C24.6776 10.3895 24.5795 10.1664 24.4125 10ZM17.8125 6.0125L21.4875 9.6875H17.8125V6.0125ZM19.0625 23.75C19.0625 24.1644 18.8979 24.5619 18.6049 24.8549C18.3119 25.1479 17.9144 25.3125 17.5 25.3125H8.75C8.3356 25.3125 7.93817 25.1479 7.64515 24.8549C7.35212 24.5619 7.1875 24.1644 7.1875 23.75V11.25C7.1875 10.8356 7.35212 10.4382 7.64515 10.1452C7.93817 9.85213 8.3356 9.6875 8.75 9.6875H10.3125V18.75C10.3125 19.6616 10.6747 20.536 11.3193 21.1806C11.964 21.8254 12.8384 22.1875 13.75 22.1875H19.0625V23.75ZM21.25 20.3125H13.75C13.3356 20.3125 12.9381 20.1479 12.6451 19.8549C12.3521 19.5619 12.1875 19.1644 12.1875 18.75V6.25C12.1875 5.8356 12.3521 5.43817 12.6451 5.14515C12.9381 4.85212 13.3356 4.6875 13.75 4.6875H15.9375V10.625C15.9407 10.8726 16.0405 11.1092 16.2156 11.2843C16.3907 11.4594 16.6274 11.5593 16.875 11.5625H22.8125V18.75C22.8125 19.1644 22.6479 19.5619 22.3549 19.8549C22.0619 20.1479 21.6644 20.3125 21.25 20.3125Z" fill="#5C5C5C"/>
</svg>
