<svg width="16" height="18" viewBox="0 0 16 18" fill="none" xmlns="http://www.w3.org/2000/svg">
<g clip-path="url(#clip0_2443_207)">
<path d="M10.7322 0.141984C10.6617 0.0805169 10.5618 0.0390625 10.4634 0.0390625C10.4428 0.0390625 10.4208 0.0390625 10.4002 0.0462098H1.37843C1.13754 0.0462098 0.909863 0.143413 0.746818 0.302083C0.582305 0.460754 0.482422 0.675173 0.482422 0.916752V16.7337C0.482422 16.9753 0.582305 17.1897 0.745349 17.3484C0.908394 17.5071 1.12872 17.6043 1.37696 17.6043C5.93486 17.6043 10.0947 17.6043 14.6291 17.6043C14.8773 17.6043 15.0977 17.5071 15.2607 17.3484C15.4238 17.1897 15.5236 16.9753 15.5236 16.7337V5.11651C15.531 5.0822 15.5383 5.05504 15.5383 5.0193C15.5383 4.90209 15.481 4.79774 15.4032 4.72198L10.7821 0.170573C10.7674 0.156278 10.7601 0.15056 10.7469 0.143413H10.7322V0.141984ZM7.6079 12.0108V7.02341C7.6079 6.81042 7.78417 6.63888 8.0089 6.63888C8.22777 6.63888 8.4099 6.81042 8.4099 7.02341V12.0065L10.2489 10.4441C10.412 10.304 10.6631 10.3169 10.8071 10.4756C10.951 10.6342 10.9378 10.8744 10.7748 11.0145L8.27477 13.1386C8.12054 13.2702 7.89286 13.2659 7.74451 13.1344L5.2489 11.013C5.08586 10.8729 5.06676 10.6328 5.21658 10.4741C5.36053 10.3155 5.61171 10.3026 5.77475 10.4427L7.61378 12.0051L7.6079 12.0108ZM10.058 0.826696V4.2331C10.058 4.55759 10.1931 4.85492 10.4134 5.06934C10.6338 5.28376 10.9393 5.41527 11.2727 5.41527H14.7084V16.7352C14.7084 16.7566 14.7011 16.7838 14.6805 16.7966C14.6658 16.8109 14.6453 16.8238 14.6173 16.8238C11.0083 16.8238 4.88168 16.8238 1.37109 16.8238C1.34905 16.8238 1.32115 16.8166 1.30793 16.7966C1.29324 16.7823 1.28002 16.7552 1.28002 16.7352V0.916752C1.28002 0.889592 1.28736 0.86815 1.30793 0.855285C1.32261 0.84099 1.34318 0.828125 1.37109 0.828125H10.0521H10.058V0.826696ZM10.86 4.2331V1.3799L14.1605 4.63335H11.2713C11.1582 4.63335 11.0583 4.58475 10.9804 4.51613C10.9099 4.44609 10.86 4.34317 10.86 4.2331Z" fill="white"/>
</g>
<defs>
<clipPath id="clip0_2443_207">
<rect width="15.0559" height="17.5652" fill="white" transform="translate(0.482422 0.0390625)"/>
</clipPath>
</defs>
</svg>
