<svg width="30" height="30" viewBox="0 0 30 30" fill="none" xmlns="http://www.w3.org/2000/svg">
<g clip-path="url(#clip0_31_268)">
<path d="M28.1527 11.5727L24.9475 8.36751C24.6579 8.07793 24.1882 8.07793 23.8985 8.36751L21.0481 11.2179C21.0479 11.2181 21.0476 11.2183 21.0474 11.2186C21.0472 11.2189 21.047 11.2191 21.0467 11.2193L13.7344 18.5316C13.6247 18.6413 13.552 18.7829 13.5269 18.9362L12.8985 22.7699C12.8598 23.0056 12.9371 23.2456 13.106 23.4145C13.2462 23.5546 13.4354 23.6317 13.6305 23.6317C13.6704 23.6317 13.7105 23.6285 13.7505 23.6219L17.5843 22.9935C17.7376 22.9683 17.879 22.8958 17.9889 22.786L28.1528 12.6217C28.2919 12.4826 28.37 12.294 28.37 12.0972C28.37 11.9003 28.2919 11.7118 28.1527 11.5727ZM17.1086 21.5679L14.5294 21.9907L14.9522 19.4116L21.5719 12.792L23.7281 14.9483L17.1086 21.5679ZM24.7772 13.8993L22.621 11.7431L24.4231 9.94102L26.5794 12.0973L24.7772 13.8993Z" fill="#222220"/>
<path d="M24.5389 19.0735C24.1291 19.0735 23.7971 19.4055 23.7971 19.8153V28.5165H3.1134V1.48351H23.7971V6.31858C23.7971 6.72833 24.1291 7.06034 24.5389 7.06034C24.9486 7.06034 25.2806 6.72833 25.2806 6.31858V0.741757C25.2806 0.33201 24.9486 0 24.5389 0H2.37164C1.96189 0 1.62988 0.33201 1.62988 0.741757V29.2582C1.62988 29.668 1.96189 30 2.37164 30H24.5389C24.9486 30 25.2806 29.668 25.2806 29.2582V19.8153C25.2806 19.4056 24.9486 19.0735 24.5389 19.0735Z" fill="#222220"/>
<path d="M11.3392 4.16442C11.0494 3.87484 10.5798 3.87484 10.2902 4.16442L7.46338 6.9913L6.34461 5.87253C6.05483 5.58295 5.58525 5.58295 5.29557 5.87253C5.00589 6.16231 5.00589 6.6319 5.29557 6.92158L6.93881 8.56481C7.0837 8.70961 7.27359 8.782 7.46338 8.782C7.65317 8.782 7.84306 8.70961 7.98795 8.56481L11.3393 5.21346C11.6289 4.92378 11.6289 4.4542 11.3392 4.16442Z" fill="#222220"/>
<path d="M11.3392 12.9022C11.0494 12.6126 10.5798 12.6126 10.2902 12.9022L7.46338 15.7291L6.34461 14.6102C6.05483 14.3207 5.58525 14.3207 5.29557 14.6102C5.00589 14.9 5.00589 15.3696 5.29557 15.6593L6.93881 17.3025C7.0837 17.4473 7.27359 17.5197 7.46338 17.5197C7.65317 17.5197 7.84306 17.4473 7.98795 17.3025L11.3393 13.9512C11.6289 13.6616 11.6289 13.192 11.3392 12.9022Z" fill="#222220"/>
<path d="M10.2902 21.6401L7.46338 24.467L6.34461 23.3481C6.05483 23.0585 5.58525 23.0585 5.29557 23.3481C5.00589 23.6379 5.00589 24.1075 5.29557 24.3972L6.93881 26.0404C7.07796 26.1795 7.26656 26.2576 7.46338 26.2576C7.66019 26.2576 7.84869 26.1795 7.98795 26.0403L11.3393 22.6889C11.629 22.3992 11.629 21.9296 11.3393 21.6399C11.0495 21.3504 10.5799 21.3503 10.2902 21.6401Z" fill="#222220"/>
</g>
<defs>
<clipPath id="clip0_31_268">
<rect width="30" height="30" fill="white"/>
</clipPath>
</defs>
</svg>
