<svg width="30" height="30" viewBox="0 0 30 30" fill="none" xmlns="http://www.w3.org/2000/svg">
<g clip-path="url(#clip0_96_6844)">
<path d="M24.954 2.18579H19.4276V0.585938C19.4276 0.262377 19.1653 0 18.8417 0H11.1583C10.8347 0 10.5723 0.262377 10.5723 0.585938V2.18579H5.04602C4.72246 2.18579 4.46008 2.44817 4.46008 2.77173V29.4141C4.46008 29.7376 4.72246 30 5.04602 30H24.954C25.2775 30 25.5399 29.7376 25.5399 29.4141V2.77173C25.5399 2.44811 25.2775 2.18579 24.954 2.18579ZM11.7442 1.17188H18.2558V4.54866H11.7442V1.17188ZM24.368 28.8281H5.63196V3.35767H10.5723V5.13466C10.5723 5.45822 10.8347 5.7206 11.1583 5.7206H18.8417C19.1653 5.7206 19.4276 5.45822 19.4276 5.13466V3.35767H24.368V28.8281Z" fill="black"/>
<path d="M8.11786 8.73242H17.1562C17.4797 8.73242 17.7421 8.47004 17.7421 8.14648C17.7421 7.82292 17.4797 7.56055 17.1562 7.56055H8.11786C7.7943 7.56055 7.53192 7.82292 7.53192 8.14648C7.53192 8.47004 7.7943 8.73242 8.11786 8.73242Z" fill="black"/>
<path d="M22.0593 10.5742H8.11786C7.7943 10.5742 7.53192 10.8366 7.53192 11.1602C7.53192 11.4837 7.7943 11.7461 8.11786 11.7461H22.0593C22.3829 11.7461 22.6453 11.4837 22.6453 11.1602C22.6453 10.8366 22.3829 10.5742 22.0593 10.5742Z" fill="black"/>
<path d="M22.0593 13.5879H8.11786C7.7943 13.5879 7.53192 13.8503 7.53192 14.1738C7.53192 14.4974 7.7943 14.7598 8.11786 14.7598H22.0593C22.3829 14.7598 22.6453 14.4974 22.6453 14.1738C22.6453 13.8503 22.3829 13.5879 22.0593 13.5879Z" fill="black"/>
<path d="M22.0593 16.4219H8.11786C7.7943 16.4219 7.53192 16.6843 7.53192 17.0078C7.53192 17.3314 7.7943 17.5938 8.11786 17.5938H22.0593C22.3829 17.5938 22.6453 17.3314 22.6453 17.0078C22.6453 16.6843 22.3829 16.4219 22.0593 16.4219Z" fill="black"/>
<path d="M20.1099 8.73242H22.0594C22.3829 8.73242 22.6453 8.47004 22.6453 8.14648C22.6453 7.82292 22.3829 7.56055 22.0594 7.56055H20.1099C19.7864 7.56055 19.524 7.82292 19.524 8.14648C19.524 8.47004 19.7864 8.73242 20.1099 8.73242Z" fill="black"/>
<path d="M16.1367 23.0573C16.1367 22.9009 16.0741 22.7509 15.9629 22.6408L13.7285 20.4293C13.5072 20.2102 13.153 20.2025 12.9225 20.4119C12.1487 21.1146 11.7048 22.1137 11.7048 23.1531C11.7048 24.1471 12.0956 25.0812 12.805 25.7835C12.9192 25.8965 13.0682 25.953 13.2172 25.953C13.3662 25.953 13.5153 25.8966 13.6294 25.7835L15.963 23.4737C16.0742 23.3636 16.1367 23.2137 16.1367 23.0573ZM13.2639 24.4964C13.0117 24.0972 12.8768 23.6353 12.8768 23.1531C12.8768 22.6292 13.0424 22.1199 13.3422 21.6956L14.718 23.0573L13.2639 24.4964Z" fill="black"/>
<path d="M21.0724 20.5222V20.5221L21.0724 20.5221C20.3645 19.8214 19.4239 19.4355 18.4236 19.4355C17.484 19.4355 16.5849 19.7821 15.8921 20.4112C15.773 20.5193 15.7036 20.6716 15.7001 20.8324C15.6967 20.9932 15.7595 21.1483 15.8738 21.2615L17.6874 23.0566L15.7746 24.9499C15.6634 25.0599 15.6009 25.2099 15.6009 25.3663C15.6009 25.5228 15.6634 25.6727 15.7746 25.7828C16.4825 26.4835 17.4233 26.8693 18.4236 26.8693C20.4909 26.8693 22.1728 25.2019 22.1728 23.1524C22.1726 22.1585 21.7819 21.2244 21.0724 20.5222ZM17.1914 20.9169C17.5662 20.715 17.9884 20.6075 18.4235 20.6075C18.9098 20.6075 19.3756 20.7396 19.7787 20.9866L18.5203 22.2322L17.1914 20.9169ZM18.4235 25.6974C17.9371 25.6974 17.4713 25.5653 17.0683 25.3183L19.388 23.0222L20.6136 21.8091C20.8658 22.2085 21.0008 22.6702 21.0008 23.1524C21.0008 24.5558 19.8446 25.6974 18.4235 25.6974Z" fill="black"/>
<path d="M15.293 2.10938H13.3008C12.9772 2.10938 12.7148 2.37175 12.7148 2.69531C12.7148 3.01887 12.9772 3.28125 13.3008 3.28125H15.293C15.6165 3.28125 15.8789 3.01887 15.8789 2.69531C15.8789 2.37175 15.6165 2.10938 15.293 2.10938Z" fill="black"/>
</g>
<defs>
<clipPath id="clip0_96_6844">
<rect width="30" height="30" fill="white"/>
</clipPath>
</defs>
</svg>
