<svg width="28" height="28" viewBox="0 0 28 28" fill="none" xmlns="http://www.w3.org/2000/svg">
<path d="M3.5 11.6665V20.9998C3.5 22.2885 4.54467 23.3332 5.83333 23.3332H12.8333M3.5 11.6665V6.99984C3.5 5.71117 4.54467 4.6665 5.83333 4.6665H22.1667C23.4554 4.6665 24.5 5.71117 24.5 6.99984V11.6665M3.5 11.6665H24.5M24.5 11.6665V15.1665" stroke="white" stroke-width="1.5" stroke-linecap="round" stroke-linejoin="round"/>
<path d="M21.8333 18.3335V21.8335M21.8333 21.8335V25.3335M21.8333 21.8335H18.3333M21.8333 21.8335H25.3333" stroke="white" stroke-width="1.5" stroke-linecap="round" stroke-linejoin="round"/>
<path d="M7.00001 9.33333C7.64434 9.33333 8.16668 8.811 8.16668 8.16667C8.16668 7.52233 7.64434 7 7.00001 7C6.35568 7 5.83334 7.52233 5.83334 8.16667C5.83334 8.811 6.35568 9.33333 7.00001 9.33333Z" fill="white"/>
<path d="M10.5 9.33333C11.1443 9.33333 11.6667 8.811 11.6667 8.16667C11.6667 7.52233 11.1443 7 10.5 7C9.85568 7 9.33334 7.52233 9.33334 8.16667C9.33334 8.811 9.85568 9.33333 10.5 9.33333Z" fill="white"/>
<rect x="6" y="14" width="5" height="6" fill="white"/>
<rect x="12" y="14" width="5" height="6" fill="white"/>
</svg>
