<svg width="22" height="22" viewBox="0 0 22 22" fill="none" xmlns="http://www.w3.org/2000/svg">
<g clip-path="url(#clip0_384_673)">
<path d="M18.2996 1.60292H14.2469V0.429688C14.2469 0.19241 14.0545 0 13.8173 0H8.18274C7.94547 0 7.75306 0.19241 7.75306 0.429688V1.60292H3.70042C3.46315 1.60292 3.27074 1.79532 3.27074 2.0326V21.5703C3.27074 21.8076 3.46315 22 3.70042 22H18.2996C18.5369 22 18.7293 21.8076 18.7293 21.5703V2.0326C18.7293 1.79528 18.5369 1.60292 18.2996 1.60292ZM8.61243 0.859375H13.3876V3.33569H8.61243V0.859375ZM17.8699 21.1406H4.13011V2.46229H7.75306V3.76542C7.75306 4.0027 7.94547 4.19511 8.18274 4.19511H13.8173C14.0545 4.19511 14.2469 4.0027 14.2469 3.76542V2.46229H17.8699V21.1406Z" fill="white"/>
<path d="M5.95311 6.40625H12.5812C12.8185 6.40625 13.0109 6.21384 13.0109 5.97656C13.0109 5.73928 12.8185 5.54688 12.5812 5.54688H5.95311C5.71583 5.54688 5.52342 5.73928 5.52342 5.97656C5.52342 6.21384 5.71583 6.40625 5.95311 6.40625Z" fill="white"/>
<path d="M16.1769 7.75781H5.95311C5.71583 7.75781 5.52342 7.95022 5.52342 8.1875C5.52342 8.42478 5.71583 8.61719 5.95311 8.61719H16.1769C16.4141 8.61719 16.6066 8.42478 16.6066 8.1875C16.6066 7.95022 16.4141 7.75781 16.1769 7.75781Z" fill="white"/>
<path d="M16.1769 9.96094H5.95311C5.71583 9.96094 5.52342 10.1533 5.52342 10.3906C5.52342 10.6279 5.71583 10.8203 5.95311 10.8203H16.1769C16.4141 10.8203 16.6066 10.6279 16.6066 10.3906C16.6066 10.1533 16.4141 9.96094 16.1769 9.96094Z" fill="white"/>
<path d="M16.1769 12.0469H5.95311C5.71583 12.0469 5.52342 12.2393 5.52342 12.4766C5.52342 12.7138 5.71583 12.9062 5.95311 12.9062H16.1769C16.4141 12.9062 16.6066 12.7138 16.6066 12.4766C16.6066 12.2393 16.4141 12.0469 16.1769 12.0469Z" fill="white"/>
<path d="M14.7473 6.40625H16.1769C16.4142 6.40625 16.6066 6.21384 16.6066 5.97656C16.6066 5.73928 16.4142 5.54688 16.1769 5.54688H14.7473C14.51 5.54688 14.3176 5.73928 14.3176 5.97656C14.3176 6.21384 14.51 6.40625 14.7473 6.40625Z" fill="white"/>
<path d="M11.8336 16.9109C11.8336 16.7962 11.7877 16.6862 11.7062 16.6055L10.0676 14.9837C9.90534 14.823 9.64558 14.8174 9.47651 14.971C8.90905 15.4863 8.58357 16.219 8.58357 16.9812C8.58357 17.7101 8.87011 18.3951 9.39039 18.9101C9.47411 18.993 9.58339 19.0344 9.69266 19.0344C9.80194 19.0344 9.91122 18.993 9.99494 18.9101L11.7062 17.2163C11.7878 17.1356 11.8336 17.0256 11.8336 16.9109ZM9.7269 17.9663C9.54196 17.6735 9.44299 17.3348 9.44299 16.9812C9.44299 16.597 9.56444 16.2235 9.7843 15.9123L10.7932 16.9109L9.7269 17.9663Z" fill="white"/>
<path d="M15.4531 15.0469V15.0468L15.4531 15.0468C14.934 14.533 14.2442 14.25 13.5106 14.25C12.8216 14.25 12.1623 14.5041 11.6542 14.9655C11.5669 15.0448 11.516 15.1565 11.5134 15.2744C11.5109 15.3923 11.557 15.506 11.6408 15.589L12.9708 16.9054L11.5681 18.2939C11.4865 18.3745 11.4407 18.4845 11.4407 18.5993C11.4407 18.714 11.4865 18.8239 11.5681 18.9046C12.0872 19.4185 12.7771 19.7014 13.5107 19.7014C15.0267 19.7014 16.26 18.4787 16.26 16.9757C16.26 16.2468 15.9734 15.5619 15.4531 15.0469ZM12.6071 15.3363C12.8819 15.1883 13.1915 15.1094 13.5106 15.1094C13.8672 15.1094 14.2088 15.2063 14.5044 15.3875L13.5816 16.3009L12.6071 15.3363ZM13.5106 18.842C13.1539 18.842 12.8123 18.7452 12.5167 18.564L14.2179 16.8802L15.1166 15.9906C15.3016 16.2835 15.4006 16.6221 15.4006 16.9757C15.4006 18.0048 14.5527 18.842 13.5106 18.842Z" fill="white"/>
<path d="M11.2148 1.54688H9.75391C9.51663 1.54688 9.32422 1.73928 9.32422 1.97656C9.32422 2.21384 9.51663 2.40625 9.75391 2.40625H11.2148C11.4521 2.40625 11.6445 2.21384 11.6445 1.97656C11.6445 1.73928 11.4521 1.54688 11.2148 1.54688Z" fill="white"/>
</g>
<defs>
<clipPath id="clip0_384_673">
<rect width="22" height="22" fill="white"/>
</clipPath>
</defs>
</svg>
