<svg width="30" height="28" viewBox="0 0 30 28" fill="none" xmlns="http://www.w3.org/2000/svg">
<path d="M25.0247 9.22771V2.79353C25.0247 1.87408 24.5538 1.04262 23.7648 0.570643C23.3648 0.331155 22.9224 0.207661 22.4774 0.200162C22.0359 0.188162 21.5914 0.290657 21.1839 0.509146L19.999 1.14411V1.15711L11.3929 5.76788C10.7705 6.10137 10.324 6.66634 10.1315 7.32331L3.61782 7.72129C2.79486 7.77978 2.14389 8.42425 2.0454 9.22521H1.60542C0.719964 9.22471 0 9.94517 0 10.8301V13.619C0 14.5044 0.719964 15.2244 1.60542 15.2244H2.0479C2.15639 16.1119 2.87786 16.8258 3.79381 16.8913L4.0258 16.9053V25.5489C4.0258 26.7893 5.03525 27.7988 6.27569 27.7988C7.51612 27.7988 8.52557 26.7893 8.52557 25.5489V17.1793L10.1445 17.2778C10.3495 17.9413 10.813 18.5032 11.4584 18.8252L19.999 23.0955V23.1085L21.2484 23.7335C21.6169 23.918 22.0134 24.0095 22.4089 24.0095C22.4129 24.0095 22.4169 24.0085 22.4209 24.0085C22.4254 24.0085 22.4304 24.0095 22.4349 24.0095C22.9064 24.0095 23.3768 23.879 23.7958 23.6205C24.5653 23.145 25.0247 22.3206 25.0247 21.4161V15.2219C26.3907 15.2079 27.4986 14.0945 27.4986 12.7245V11.7246C27.4986 10.3552 26.3907 9.24171 25.0247 9.22771ZM7.52562 25.5494C7.52562 26.2389 6.96515 26.7993 6.27569 26.7993C5.58622 26.7993 5.02575 26.2389 5.02575 25.5494V25.2244H6.0257C6.30218 25.2244 6.52567 25.0009 6.52567 24.7244C6.52567 24.448 6.30218 24.2245 6.0257 24.2245H5.02575V23.2245H6.0257C6.30218 23.2245 6.52567 23.001 6.52567 22.7245C6.52567 22.448 6.30218 22.2246 6.0257 22.2246H5.02575V21.2246H6.0257C6.30218 21.2246 6.52567 21.0011 6.52567 20.7246C6.52567 20.4481 6.30218 20.2247 6.0257 20.2247H5.02575V19.2247H6.0257C6.30218 19.2247 6.52567 19.0012 6.52567 18.7247C6.52567 18.4482 6.30218 18.2248 6.0257 18.2248H5.02575V16.9688L7.52562 17.1238V25.5494ZM21.7219 22.839L20.9989 22.4775V1.75658L21.6814 1.3911C21.8924 1.27811 22.1194 1.22361 22.3479 1.21111C22.3799 1.21011 22.4109 1.20061 22.4429 1.20111C22.4459 1.20111 22.4484 1.20161 22.4514 1.20161C22.7189 1.20911 22.9848 1.28461 23.2248 1.4286C23.7098 1.71859 23.9988 2.22856 23.9988 2.79353V9.22471V15.2244V21.4156C23.9988 21.9711 23.7168 22.477 23.2438 22.769C23.0103 22.9135 22.7509 22.992 22.4884 23.0055C22.2279 23.0145 21.9654 22.9605 21.7219 22.839ZM1.9999 14.2245H1.60542C1.27144 14.2245 0.99995 13.953 0.99995 13.6195V10.8306C0.99995 10.4966 1.27144 10.2252 1.60542 10.2252H1.9999V14.2245ZM3.02585 14.9979V9.4312C3.02585 9.05822 3.31733 8.74523 3.68382 8.71874L10.0255 8.33176V16.2684L3.85981 15.8939C3.39183 15.8604 3.02585 15.4669 3.02585 14.9979ZM11.9054 17.9308C11.3624 17.6598 11.0254 17.1143 11.0254 16.5073V8.05277C11.0254 7.4648 11.3474 6.92733 11.8659 6.64984L19.999 2.29206V21.9771L11.9054 17.9308ZM26.4987 12.7245C26.4987 13.543 25.8397 14.2075 25.0247 14.222V10.2272C25.8397 10.2417 26.4987 10.9066 26.4987 11.7246V12.7245Z" fill="black"/>
<path d="M28.907 8.9364C28.7486 8.71091 28.4361 8.65692 28.2101 8.81591C27.9846 8.9749 27.9301 9.28638 28.0896 9.51287C28.6676 10.3333 28.9735 11.2498 28.998 12.2377C29.03 13.4842 28.3751 14.5381 28.0916 14.9331C27.9306 15.1576 27.9821 15.4701 28.2061 15.6311C28.2946 15.6946 28.3966 15.7251 28.4971 15.7251C28.6531 15.7251 28.806 15.6526 28.9035 15.5166C29.246 15.0391 30.0375 13.7617 29.9975 12.2127C29.968 11.0233 29.601 9.92135 28.907 8.9364Z" fill="black"/>
<path d="M15.9472 6.50319C15.8247 6.2562 15.5262 6.15371 15.2772 6.2767L13.0518 7.37715C12.4029 7.72463 11.9994 8.3981 11.9994 9.13506V10.225C11.9994 10.5015 12.2229 10.725 12.4994 10.725C12.7759 10.725 12.9993 10.5015 12.9993 10.225V9.13506C12.9993 8.76808 13.2003 8.43209 13.5098 8.2666L15.7212 7.17316C15.9682 7.05066 16.0702 6.75068 15.9472 6.50319Z" fill="black"/>
<path d="M12.4994 11.2246C12.2229 11.2246 11.9994 11.4481 11.9994 11.7246V12.7245C11.9994 13.001 12.2229 13.2245 12.4994 13.2245C12.7759 13.2245 12.9993 13.001 12.9993 12.7245V11.7246C12.9993 11.4486 12.7759 11.2246 12.4994 11.2246Z" fill="black"/>
</svg>
