<svg width="15" height="15" viewBox="0 0 15 15" fill="none" xmlns="http://www.w3.org/2000/svg">
<g clip-path="url(#clip0_322_3066)">
<path d="M0 0.414062V14.5807H10.8334V12.0807H10V13.7474H0.833336V1.2474H10V2.91406H10.8334V0.414062H0Z" fill="black"/>
<path fill-rule="evenodd" clip-rule="evenodd" d="M9.58337 11.2461C10.4688 11.2461 11.2824 10.9392 11.924 10.4261L14.2863 12.7906C14.4489 12.9534 14.7127 12.9535 14.8755 12.7909C15.0383 12.6282 15.0384 12.3644 14.8758 12.2016L12.5132 9.8369C13.0265 9.19534 13.3334 8.38151 13.3334 7.49609C13.3334 5.42502 11.6544 3.74609 9.58337 3.74609C7.51227 3.74609 5.83334 5.42502 5.83334 7.49609C5.83334 9.56713 7.51227 11.2461 9.58337 11.2461ZM9.58337 10.4128C11.1941 10.4128 12.5 9.1069 12.5 7.49609C12.5 5.88526 11.1941 4.57942 9.58337 4.57942C7.97251 4.57942 6.66667 5.88526 6.66667 7.49609C6.66667 9.1069 7.97251 10.4128 9.58337 10.4128Z" fill="black"/>
</g>
<defs>
<clipPath id="clip0_322_3066">
<rect width="15" height="15" fill="white"/>
</clipPath>
</defs>
</svg>
