<svg width="26" height="27" viewBox="0 0 26 27" fill="none" xmlns="http://www.w3.org/2000/svg">
<circle cx="13" cy="13" r="13" fill="white"/>
<path d="M10.6953 16.2637V15.541C10.6953 14.916 10.8288 14.3724 11.0957 13.9102C11.3626 13.4479 11.8509 12.9564 12.5605 12.4355C13.2441 11.9473 13.6934 11.5501 13.9082 11.2441C14.1296 10.9382 14.2402 10.5964 14.2402 10.2188C14.2402 9.79557 14.084 9.47331 13.7715 9.25195C13.459 9.0306 13.0228 8.91992 12.4629 8.91992C11.4863 8.91992 10.373 9.23893 9.12305 9.87695L8.05859 7.73828C9.51042 6.92448 11.0501 6.51758 12.6777 6.51758C14.0189 6.51758 15.0833 6.83984 15.8711 7.48438C16.6654 8.12891 17.0625 8.98828 17.0625 10.0625C17.0625 10.7786 16.8997 11.3971 16.5742 11.918C16.2487 12.4388 15.6302 13.0247 14.7188 13.6758C14.0938 14.138 13.6966 14.4896 13.5273 14.7305C13.3646 14.9714 13.2832 15.2871 13.2832 15.6777V16.2637H10.6953ZM10.3828 19.6035C10.3828 19.0566 10.5293 18.6432 10.8223 18.3633C11.1152 18.0833 11.5417 17.9434 12.1016 17.9434C12.6419 17.9434 13.0586 18.0866 13.3516 18.373C13.651 18.6595 13.8008 19.0697 13.8008 19.6035C13.8008 20.1178 13.651 20.5247 13.3516 20.8242C13.0521 21.1172 12.6354 21.2637 12.1016 21.2637C11.5547 21.2637 11.1315 21.1204 10.832 20.834C10.5326 20.541 10.3828 20.1309 10.3828 19.6035Z" fill="black"/>
</svg>
