<svg width="31" height="31" viewBox="0 0 31 31" fill="none" xmlns="http://www.w3.org/2000/svg">
<path d="M14.5312 14.0469C14.5312 13.7795 14.7483 13.5625 15.0156 13.5625H20.8281C21.0955 13.5625 21.3125 13.7795 21.3125 14.0469C21.3125 14.3142 21.0955 14.5312 20.8281 14.5312H15.0156C14.7483 14.5312 14.5312 14.3142 14.5312 14.0469ZM14.5312 15.9844C14.5312 15.717 14.7483 15.5 15.0156 15.5H20.8281C21.0955 15.5 21.3125 15.717 21.3125 15.9844C21.3125 16.2517 21.0955 16.4688 20.8281 16.4688H15.0156C14.7483 16.4688 14.5312 16.2517 14.5312 15.9844ZM14.5312 17.9219C14.5312 17.6545 14.7483 17.4375 15.0156 17.4375H20.8281C21.0955 17.4375 21.3125 17.6545 21.3125 17.9219C21.3125 18.1893 21.0955 18.4062 20.8281 18.4062H15.0156C14.7483 18.4062 14.5312 18.1893 14.5312 17.9219ZM23.25 1.9375H6.78125C5.17603 1.9375 3.875 3.23853 3.875 4.84375V6.78125C3.875 7.316 4.309 7.75 4.84375 7.75H8.71875V23.25H4.84375C4.309 23.25 3.875 23.684 3.875 24.2188V26.1562C3.875 27.7615 5.17603 29.0625 6.78125 29.0625H23.25C24.8552 29.0625 26.1562 27.7615 26.1562 26.1562V4.84375C26.1562 3.23853 24.8552 1.9375 23.25 1.9375ZM8.71875 26.1562C8.71875 27.2267 7.85172 28.0938 6.78125 28.0938C5.71272 28.0938 4.84375 27.2248 4.84375 26.1562V24.2188H8.71875V26.1562ZM8.71875 6.78125H4.84375V4.84375C4.84375 3.77522 5.71272 2.90625 6.78125 2.90625C7.85172 2.90625 8.71875 3.77328 8.71875 4.84375V6.78125ZM25.1875 26.1562C25.1875 26.6736 24.986 27.1599 24.6198 27.5261C24.2536 27.8923 23.7673 28.0938 23.25 28.0938H8.94544C9.40656 27.5793 9.6875 26.9002 9.6875 26.1562V4.84375C9.6875 4.09975 9.40656 3.42066 8.94544 2.90625H23.25C24.3185 2.90625 25.1875 3.77522 25.1875 4.84375V26.1562Z" fill="white"/>
</svg>
