<svg width="30" height="30" viewBox="0 0 30 30" fill="none" xmlns="http://www.w3.org/2000/svg">
<g clip-path="url(#clip0_2_360)">
<path d="M23.75 11.25C22.9763 11.2522 22.2222 11.4936 21.5912 11.9412C20.9601 12.3887 20.4829 13.0206 20.225 13.75H3.75C3.41848 13.75 3.10054 13.8817 2.86612 14.1161C2.6317 14.3505 2.5 14.6685 2.5 15C2.5 15.3315 2.6317 15.6495 2.86612 15.8839C3.10054 16.1183 3.41848 16.25 3.75 16.25H20.225C20.4543 16.8986 20.8576 17.4716 21.3908 17.9063C21.924 18.3411 22.5665 18.6208 23.248 18.7148C23.9294 18.8088 24.6237 18.7136 25.2546 18.4395C25.8856 18.1654 26.429 17.723 26.8254 17.1607C27.2218 16.5985 27.4559 15.938 27.5021 15.2516C27.5482 14.5652 27.4047 13.8794 27.0872 13.2691C26.7696 12.6588 26.2903 12.1477 25.7017 11.7915C25.1132 11.4354 24.4379 11.2481 23.75 11.25Z" fill="white"/>
<path d="M3.75 8.75H5.225C5.48776 9.47394 5.96704 10.0994 6.59771 10.5414C7.22838 10.9835 7.97985 11.2206 8.75 11.2206C9.52015 11.2206 10.2716 10.9835 10.9023 10.5414C11.533 10.0994 12.0122 9.47394 12.275 8.75H26.25C26.5815 8.75 26.8995 8.6183 27.1339 8.38388C27.3683 8.14946 27.5 7.83152 27.5 7.5C27.5 7.16848 27.3683 6.85054 27.1339 6.61612C26.8995 6.3817 26.5815 6.25 26.25 6.25H12.275C12.0122 5.52606 11.533 4.90057 10.9023 4.45855C10.2716 4.01653 9.52015 3.7794 8.75 3.7794C7.97985 3.7794 7.22838 4.01653 6.59771 4.45855C5.96704 4.90057 5.48776 5.52606 5.225 6.25H3.75C3.41848 6.25 3.10054 6.3817 2.86612 6.61612C2.6317 6.85054 2.5 7.16848 2.5 7.5C2.5 7.83152 2.6317 8.14946 2.86612 8.38388C3.10054 8.6183 3.41848 8.75 3.75 8.75Z" fill="white"/>
<path d="M26.25 21.25H17.275C17.0122 20.5261 16.533 19.9006 15.9023 19.4586C15.2716 19.0165 14.5201 18.7794 13.75 18.7794C12.9799 18.7794 12.2284 19.0165 11.5977 19.4586C10.967 19.9006 10.4878 20.5261 10.225 21.25H3.75C3.41848 21.25 3.10054 21.3817 2.86612 21.6161C2.6317 21.8505 2.5 22.1685 2.5 22.5C2.5 22.8315 2.6317 23.1495 2.86612 23.3839C3.10054 23.6183 3.41848 23.75 3.75 23.75H10.225C10.4878 24.4739 10.967 25.0994 11.5977 25.5414C12.2284 25.9835 12.9799 26.2206 13.75 26.2206C14.5201 26.2206 15.2716 25.9835 15.9023 25.5414C16.533 25.0994 17.0122 24.4739 17.275 23.75H26.25C26.5815 23.75 26.8995 23.6183 27.1339 23.3839C27.3683 23.1495 27.5 22.8315 27.5 22.5C27.5 22.1685 27.3683 21.8505 27.1339 21.6161C26.8995 21.3817 26.5815 21.25 26.25 21.25Z" fill="white"/>
</g>
<defs>
<clipPath id="clip0_2_360">
<rect width="30" height="30" fill="white"/>
</clipPath>
</defs>
</svg>
