<svg width="20" height="20" viewBox="0 0 20 20" fill="none" xmlns="http://www.w3.org/2000/svg">
<g clip-path="url(#clip0_306_1352)">
<path d="M16.6667 3.33464V13.3346H5.66669L5.16669 13.793L3.33335 15.543V3.33464H16.6667ZM17.5 1.66797H2.50002C2.27901 1.66797 2.06704 1.75577 1.91076 1.91205C1.75448 2.06833 1.66669 2.28029 1.66669 2.5013V17.5013C1.66669 17.7223 1.75448 17.9343 1.91076 18.0906C2.06704 18.2468 2.27901 18.3346 2.50002 18.3346C2.71983 18.3315 2.92949 18.2416 3.08335 18.0846L6.33335 15.0013H17.5C17.721 15.0013 17.933 14.9135 18.0893 14.7572C18.2456 14.6009 18.3334 14.389 18.3334 14.168V2.5013C18.3334 2.28029 18.2456 2.06833 18.0893 1.91205C17.933 1.75577 17.721 1.66797 17.5 1.66797Z" fill="white"/>
</g>
<defs>
<clipPath id="clip0_306_1352">
<rect width="20" height="20" fill="white"/>
</clipPath>
</defs>
</svg>
