<svg width="20" height="20" viewBox="0 0 20 20" fill="none" xmlns="http://www.w3.org/2000/svg">
<path d="M9.99996 1.66699C8.35179 1.66699 6.74062 2.15573 5.37021 3.07141C3.9998 3.98709 2.9317 5.28858 2.30097 6.8113C1.67024 8.33401 1.50521 10.0096 1.82675 11.6261C2.1483 13.2426 2.94197 14.7274 4.10741 15.8929C5.27284 17.0583 6.7577 17.852 8.37421 18.1735C9.99072 18.4951 11.6663 18.3301 13.189 17.6993C14.7117 17.0686 16.0132 16.0005 16.9289 14.6301C17.8446 13.2597 18.3333 11.6485 18.3333 10.0003C18.3333 8.90598 18.1177 7.82234 17.699 6.8113C17.2802 5.80025 16.6663 4.88159 15.8925 4.10777C15.1187 3.33395 14.2 2.72012 13.189 2.30133C12.1779 1.88254 11.0943 1.66699 9.99996 1.66699ZM13.0916 11.9087C13.1697 11.9861 13.2317 12.0783 13.274 12.1798C13.3163 12.2814 13.3381 12.3903 13.3381 12.5003C13.3381 12.6103 13.3163 12.7193 13.274 12.8208C13.2317 12.9224 13.1697 13.0145 13.0916 13.092C13.0142 13.1701 12.922 13.2321 12.8204 13.2744C12.7189 13.3167 12.61 13.3385 12.5 13.3385C12.39 13.3385 12.281 13.3167 12.1795 13.2744C12.0779 13.2321 11.9858 13.1701 11.9083 13.092L9.99996 11.1837L8.09163 13.092C8.01416 13.1701 7.92199 13.2321 7.82044 13.2744C7.71889 13.3167 7.60997 13.3385 7.49996 13.3385C7.38995 13.3385 7.28103 13.3167 7.17948 13.2744C7.07793 13.2321 6.98576 13.1701 6.9083 13.092C6.83019 13.0145 6.76819 12.9224 6.72589 12.8208C6.68358 12.7193 6.6618 12.6103 6.6618 12.5003C6.6618 12.3903 6.68358 12.2814 6.72589 12.1798C6.76819 12.0783 6.83019 11.9861 6.9083 11.9087L8.81663 10.0003L6.9083 8.09199C6.75138 7.93507 6.66322 7.72224 6.66322 7.50033C6.66322 7.27841 6.75138 7.06558 6.9083 6.90866C7.06522 6.75174 7.27804 6.66358 7.49996 6.66358C7.72188 6.66358 7.93471 6.75174 8.09163 6.90866L9.99996 8.81699L11.9083 6.90866C12.0652 6.75174 12.278 6.66358 12.5 6.66358C12.7219 6.66358 12.9347 6.75174 13.0916 6.90866C13.2485 7.06558 13.3367 7.27841 13.3367 7.50033C13.3367 7.72224 13.2485 7.93507 13.0916 8.09199L11.1833 10.0003L13.0916 11.9087Z" fill="#2D2D2D"/>
</svg>
