<svg width="30" height="30" viewBox="0 0 30 30" fill="none" xmlns="http://www.w3.org/2000/svg">
<path fill-rule="evenodd" clip-rule="evenodd" d="M7.5 1.25C5.42894 1.25 3.75 2.92894 3.75 5V25C3.75 27.0711 5.42894 28.75 7.5 28.75H22.5C24.5711 28.75 26.25 27.0711 26.25 25V11.0355C26.25 10.041 25.8549 9.08715 25.1516 8.38389L19.1161 2.34835C18.4129 1.64509 17.459 1.25 16.4645 1.25H7.5ZM6.25 5C6.25 4.30965 6.80965 3.75 7.5 3.75H15V10C15 11.3807 16.1193 12.5 17.5 12.5H23.75V25C23.75 25.6904 23.1904 26.25 22.5 26.25H7.5C6.80965 26.25 6.25 25.6904 6.25 25V5ZM23.2323 10L17.5 4.26776V10H23.2323Z" fill="white"/>
<path d="M11 19.7742L12.2686 18.5784L14.3698 20.5589L18.3738 16L19.801 17.1958L14.5283 23.1L11 19.7742Z" fill="white"/>
</svg>
