<svg width="35" height="35" viewBox="0 0 35 35" fill="none" xmlns="http://www.w3.org/2000/svg">
<g clip-path="url(#clip0_97_7566)">
<path d="M34.4171 27.1807H30.6645L31.9692 26.831C32.0858 26.7727 32.2607 26.7144 32.3189 26.5396C32.3772 26.3647 32.4355 26.2481 32.3772 26.0733L31.5118 22.8613C31.5166 22.8046 31.5139 22.7476 31.5029 22.6928L30.9201 20.4197C30.8924 20.3643 30.8514 20.296 30.8037 20.2331L27.8878 9.41041C27.9033 9.33077 27.9049 9.24867 27.8893 9.17067L27.3065 6.89756C27.2706 6.82571 27.2125 6.73186 27.1459 6.65666L26.3156 3.5754C26.2573 3.28396 25.9076 3.1091 25.6162 3.16743L19.9626 4.68286C19.6711 4.74112 19.4963 5.09083 19.5546 5.38228L20.8116 10.06C20.3441 9.82712 19.8184 9.6953 19.2631 9.6953H2.36055C2.12743 9.6953 1.95258 9.81189 1.83599 10.045C1.71939 10.2199 1.71939 10.453 1.83599 10.6278L2.5354 11.7352C3.05997 12.6678 3.05997 13.7752 2.5354 14.7077L2.02006 15.5237H0.612007C0.378891 15.5237 0.204036 15.6403 0.0874442 15.8735C-0.0291481 16.0483 -0.0291481 16.2814 0.0874442 16.4563L0.786861 17.5637C1.31142 18.4962 1.31142 19.6037 0.786861 20.5362L0.0874442 21.6437C-0.0291481 21.8186 -0.0291481 22.0517 0.0874442 22.2265C0.204036 22.4014 0.378891 22.518 0.612007 22.518H1.98325L2.5354 23.3923C3.05997 24.3248 3.05997 25.4322 2.5354 26.3648L2.02006 27.1808H0.612007C0.262298 27.1808 0.0291822 27.4139 0.0291822 27.7636V31.2607C0.0291822 31.6104 0.262298 31.8435 0.612007 31.8435H34.4171C34.7668 31.8435 35 31.6104 35 31.2607V27.7636C35 27.4139 34.7668 27.1807 34.4171 27.1807ZM20.0333 21.4394C20.638 20.8099 21.0116 19.9572 21.0116 19.0208C21.0116 18.0845 20.638 17.2317 20.0333 16.6023C20.9202 16.4009 21.6818 15.8606 22.1728 15.1254L24.1822 22.6026L24.6836 24.5579C24.6971 24.5849 24.7122 24.611 24.7287 24.6362L25.4125 27.1807H21.8634C22.4201 26.5608 22.7602 25.7429 22.7602 24.8493C22.7602 23.1905 21.5893 21.7927 20.0333 21.4394ZM26.5487 8.93762L22.0607 10.1616L21.7693 9.05421L26.2572 7.83023L26.5487 8.93762ZM26.8608 10.0411L29.5402 20.1785L25.0326 21.3867L22.7353 12.7833C22.6955 12.4463 22.608 12.1234 22.4786 11.8222L22.3359 11.2878L26.8608 10.0411ZM25.383 22.518L29.8518 21.3573L30.1445 22.4646L25.6745 23.6837L25.383 22.518ZM26.5487 27.0642L25.9373 24.7747L30.4363 23.5688L31.0366 25.8402L26.5487 27.0642ZM25.383 4.44967L25.9637 6.64648L21.4217 7.86391L20.8368 5.67365L25.383 4.44967ZM3.52627 11.0941L3.40967 10.861H19.2631C20.224 10.861 21.0538 11.4501 21.4095 12.2849L21.5759 12.904C21.5877 12.9986 21.5945 13.0947 21.5945 13.1924C21.5945 14.4746 20.5454 15.5237 19.2631 15.5237H17.5146H3.40967L3.52627 15.2906C4.28394 14.0084 4.28394 12.3764 3.52627 11.0941ZM1.77772 16.9226L1.66113 16.6895H2.36055H17.5146C18.7968 16.6895 19.846 17.7387 19.846 19.0209C19.846 20.3031 18.7968 21.3523 17.5146 21.3523H2.36055H1.66113L1.77772 21.1191C2.5354 19.8368 2.5354 18.2049 1.77772 16.9226ZM3.52627 22.7511L3.40967 22.518H17.5146H19.2631C20.5454 22.518 21.5945 23.5671 21.5945 24.8493C21.5945 26.1316 20.5454 27.1807 19.2631 27.1807H3.40967L3.52627 26.9476C4.28394 25.6654 4.28394 24.0333 3.52627 22.7511ZM33.8343 30.6778H1.19483V28.3464H2.36055H19.2631H26.199H26.3156H33.8344V30.6778H33.8343Z" fill="black"/>
<path d="M6.44043 25.4313H19.263C19.6128 25.4313 19.8459 25.1982 19.8459 24.8484C19.8459 24.4987 19.6128 24.2656 19.263 24.2656H6.44043C6.09072 24.2656 5.8576 24.4987 5.8576 24.8484C5.8576 25.1982 6.09072 25.4313 6.44043 25.4313Z" fill="black"/>
<path d="M4.69189 19.6031H17.5145C17.8642 19.6031 18.0973 19.37 18.0973 19.0203C18.0973 18.6706 17.8642 18.4375 17.5145 18.4375H4.69189C4.34219 18.4375 4.10907 18.6706 4.10907 19.0203C4.10907 19.37 4.34219 19.6031 4.69189 19.6031Z" fill="black"/>
<path d="M6.44043 13.775H19.263C19.6128 13.775 19.8459 13.5419 19.8459 13.1922C19.8459 12.8425 19.6128 12.6094 19.263 12.6094H6.44043C6.09072 12.6094 5.8576 12.8425 5.8576 13.1922C5.8576 13.5419 6.09072 13.775 6.44043 13.775Z" fill="black"/>
<path d="M24.5087 12.5504L26.3155 19.3114C26.4321 19.5445 26.6653 19.7194 26.8984 19.7194C26.8984 19.7194 26.9566 19.7194 27.015 19.6611C27.3064 19.6029 27.4813 19.2532 27.4229 18.9617L25.6161 12.259C25.5579 11.9676 25.2082 11.7927 24.9167 11.851C24.6253 11.9094 24.4504 12.2589 24.5087 12.5504Z" fill="black"/>
</g>
<defs>
<clipPath id="clip0_97_7566">
<rect width="35" height="35" fill="white"/>
</clipPath>
</defs>
</svg>
