<svg width="25" height="25" viewBox="0 0 25 25" fill="none" xmlns="http://www.w3.org/2000/svg">
<path d="M22.6671 16.5859L16.0004 4.58594C15.1046 2.97135 13.865 2.08594 12.5004 2.08594C11.1359 2.08594 9.89624 2.97135 9.0004 4.58594L2.33374 16.5859C1.48999 18.1172 1.39624 19.5859 2.07332 20.7422C2.7504 21.8984 4.08374 22.5339 5.83374 22.5339H19.1671C20.9171 22.5339 22.2504 21.8984 22.9275 20.7422C23.6046 19.5859 23.5108 18.1068 22.6671 16.5859ZM11.7192 9.3776C11.7192 8.95052 12.0734 8.59635 12.5004 8.59635C12.9275 8.59635 13.2817 8.95052 13.2817 9.3776V14.5859C13.2817 15.013 12.9275 15.3672 12.5004 15.3672C12.0734 15.3672 11.7192 15.013 11.7192 14.5859V9.3776ZM13.24 18.4505C13.1879 18.4922 13.1359 18.5339 13.0838 18.5755C13.0213 18.6172 12.9588 18.6484 12.8963 18.6693C12.8338 18.7005 12.7713 18.7214 12.6984 18.7318C12.6359 18.7422 12.5629 18.7526 12.5004 18.7526C12.4379 18.7526 12.365 18.7422 12.2921 18.7318C12.2296 18.7214 12.1671 18.7005 12.1046 18.6693C12.0421 18.6484 11.9796 18.6172 11.9171 18.5755C11.865 18.5339 11.8129 18.4922 11.7609 18.4505C11.5734 18.2526 11.4588 17.9818 11.4588 17.7109C11.4588 17.4401 11.5734 17.1693 11.7609 16.9714C11.8129 16.9297 11.865 16.888 11.9171 16.8464C11.9796 16.8047 12.0421 16.7734 12.1046 16.7526C12.1671 16.7214 12.2296 16.7005 12.2921 16.6901C12.4275 16.6589 12.5734 16.6589 12.6984 16.6901C12.7713 16.7005 12.8338 16.7214 12.8963 16.7526C12.9588 16.7734 13.0213 16.8047 13.0838 16.8464C13.1359 16.888 13.1879 16.9297 13.24 16.9714C13.4275 17.1693 13.5421 17.4401 13.5421 17.7109C13.5421 17.9818 13.4275 18.2526 13.24 18.4505Z" fill="white"/>
</svg>
