<svg width="30" height="30" viewBox="0 0 30 30" fill="none" xmlns="http://www.w3.org/2000/svg">
<g clip-path="url(#clip0_31_251)">
<path d="M22.0312 13.125H14.5312C14.2725 13.125 14.0625 13.335 14.0625 13.5938C14.0625 13.8525 14.2725 14.0625 14.5312 14.0625H22.0312C22.29 14.0625 22.5 13.8525 22.5 13.5938C22.5 13.335 22.29 13.125 22.0312 13.125Z" fill="black"/>
<path d="M22.0312 17.8125H14.5312C14.2725 17.8125 14.0625 18.0225 14.0625 18.2813C14.0625 18.54 14.2725 18.75 14.5312 18.75H22.0312C22.29 18.75 22.5 18.54 22.5 18.2813C22.5 18.0225 22.29 17.8125 22.0312 17.8125Z" fill="black"/>
<path d="M22.0312 22.5H14.5312C14.2725 22.5 14.0625 22.71 14.0625 22.9688C14.0625 23.2275 14.2725 23.4375 14.5312 23.4375H22.0312C22.29 23.4375 22.5 23.2275 22.5 22.9688C22.5 22.71 22.29 22.5 22.0312 22.5Z" fill="black"/>
<path d="M24.375 3.75003H22.0312V3.28128C22.0312 2.50597 21.4003 1.87503 20.625 1.87503H18.2812V0.468781C18.2812 0.210031 18.0712 3.05176e-05 17.8125 3.05176e-05H12.1875C11.9288 3.05176e-05 11.7188 0.210031 11.7188 0.468781V1.87503H9.375C8.59969 1.87503 7.96875 2.50597 7.96875 3.28128V3.75003H5.625C4.84969 3.75003 4.21875 4.38097 4.21875 5.15628V28.5938C4.21875 29.3691 4.84969 30 5.625 30H24.375C25.1503 30 25.7812 29.3691 25.7812 28.5938V5.15628C25.7812 4.38097 25.1503 3.75003 24.375 3.75003ZM8.90625 3.28128C8.90625 3.02347 9.11719 2.81253 9.375 2.81253H12.1875C12.4462 2.81253 12.6562 2.60253 12.6562 2.34378V0.937531H17.3438V2.34378C17.3438 2.60253 17.5538 2.81253 17.8125 2.81253H20.625C20.8828 2.81253 21.0938 3.02347 21.0938 3.28128V5.15628C21.0938 5.41409 20.8828 5.62503 20.625 5.62503H9.375C9.11719 5.62503 8.90625 5.41409 8.90625 5.15628V3.28128ZM24.8438 28.5938C24.8438 28.8516 24.6328 29.0625 24.375 29.0625H5.625C5.36719 29.0625 5.15625 28.8516 5.15625 28.5938V5.15628C5.15625 4.89847 5.36719 4.68753 5.625 4.68753H7.96875V5.15628C7.96875 5.93159 8.59969 6.56253 9.375 6.56253H20.625C21.4003 6.56253 22.0312 5.93159 22.0312 5.15628V4.68753H24.375C24.6328 4.68753 24.8438 4.89847 24.8438 5.15628V28.5938Z" fill="black"/>
<path d="M11.8744 12.7547L10.5281 14.101L9.95344 13.5253C9.77063 13.3425 9.47344 13.3425 9.29063 13.5253C9.10782 13.7082 9.10782 14.0053 9.29063 14.1882L10.1972 15.0957C10.2853 15.1838 10.4044 15.2325 10.5291 15.2325C10.6538 15.2325 10.7728 15.1828 10.8609 15.0957L12.5381 13.4185C12.7209 13.2357 12.7209 12.9385 12.5381 12.7557C12.3553 12.5728 12.0572 12.5719 11.8744 12.7547Z" fill="black"/>
<path d="M11.8744 16.7672L10.5281 18.1125L9.95344 17.5369C9.77063 17.3541 9.47344 17.3541 9.29063 17.5369C9.10782 17.7197 9.10782 18.0169 9.29063 18.1997L10.1972 19.1072C10.2853 19.1953 10.4044 19.2441 10.5291 19.2441C10.6538 19.2441 10.7728 19.1944 10.8609 19.1072L12.5381 17.43C12.7209 17.2472 12.7209 16.95 12.5381 16.7672C12.3553 16.5844 12.0572 16.5835 11.8744 16.7672Z" fill="black"/>
<path d="M11.8744 21.7163L10.5281 23.0625L9.95344 22.4869C9.77063 22.3041 9.47344 22.3041 9.29063 22.4869C9.10782 22.6697 9.10782 22.9669 9.29063 23.1497L10.1972 24.0572C10.2853 24.1453 10.4044 24.1941 10.5291 24.1941C10.6538 24.1941 10.7728 24.1444 10.8609 24.0572L12.5381 22.38C12.7209 22.1972 12.7209 21.9 12.5381 21.7172C12.3553 21.5344 12.0572 21.5335 11.8744 21.7163Z" fill="black"/>
</g>
<defs>
<clipPath id="clip0_31_251">
<rect width="30" height="30" fill="white"/>
</clipPath>
</defs>
</svg>
