<svg width="30" height="30" viewBox="0 0 30 30" fill="none" xmlns="http://www.w3.org/2000/svg">
<path fill-rule="evenodd" clip-rule="evenodd" d="M24.475 3.19954L5.16248 10.4995C5.11741 10.5208 5.07932 10.5544 5.05263 10.5964C5.02595 10.6385 5.01178 10.6872 5.01178 10.737C5.01178 10.7868 5.02595 10.8356 5.05263 10.8777C5.07932 10.9197 5.11741 10.9533 5.16248 10.9745L13.425 14.512C13.4559 14.5246 13.484 14.5433 13.5076 14.5669C13.5313 14.5905 13.5499 14.6186 13.5625 14.6495L17.1 22.912C17.1212 22.9571 17.1548 22.9952 17.1968 23.0219C17.2389 23.0486 17.2877 23.0627 17.3375 23.0627C17.3873 23.0627 17.4361 23.0486 17.4781 23.0219C17.5202 22.9952 17.5538 22.9571 17.575 22.912L24.8 3.52454C24.8182 3.47911 24.8226 3.42934 24.8128 3.3814C24.8029 3.33347 24.7793 3.28947 24.7447 3.25486C24.7101 3.22026 24.6661 3.19657 24.6181 3.18674C24.5702 3.17691 24.5204 3.18136 24.475 3.19954Z" stroke="white" stroke-width="1.5" stroke-linecap="round" stroke-linejoin="round"/>
<path d="M24.7375 3.26172L13.5125 14.4867" stroke="white" stroke-width="1.5" stroke-linecap="round" stroke-linejoin="round"/>
</svg>
