<svg width="14" height="14" viewBox="0 0 14 14" fill="none" xmlns="http://www.w3.org/2000/svg">
<path d="M7 13.6663C3.318 13.6663 0.333336 10.6817 0.333336 6.99967C0.333336 3.31767 3.318 0.333008 7 0.333008C10.682 0.333008 13.6667 3.31767 13.6667 6.99967C13.6667 10.6817 10.682 13.6663 7 13.6663ZM4.28 5.15567V5.22367C4.28 5.31208 4.31512 5.39686 4.37763 5.45938C4.44015 5.52189 4.52493 5.55701 4.61334 5.55701H5.278C5.32169 5.55701 5.36495 5.5484 5.40531 5.53168C5.44567 5.51497 5.48234 5.49046 5.51323 5.45957C5.54412 5.42868 5.56863 5.39201 5.58535 5.35165C5.60206 5.31129 5.61067 5.26803 5.61067 5.22434C5.61067 4.36434 6.276 3.90501 7.17067 3.90501C8.04267 3.90501 8.616 4.36434 8.616 5.01834C8.616 5.63701 8.29467 5.92434 7.492 6.29167L7.26267 6.39434C6.586 6.69301 6.33334 7.13967 6.33334 7.92034V7.99967C6.33334 8.08808 6.36845 8.17286 6.43097 8.23538C6.49348 8.29789 6.57826 8.33301 6.66667 8.33301H7.33134C7.37502 8.33301 7.41828 8.3244 7.45864 8.30768C7.499 8.29097 7.53568 8.26646 7.56657 8.23557C7.59746 8.20468 7.62196 8.16801 7.63868 8.12765C7.6554 8.08729 7.664 8.04403 7.664 8.00034C7.664 7.65634 7.756 7.51834 8.03067 7.39234L8.26067 7.28901C9.224 6.85301 9.94667 6.27967 9.94667 5.02901V4.96034C9.94667 3.64167 8.8 2.66634 7.17067 2.66634C5.51867 2.66634 4.28 3.61834 4.28 5.15567ZM6 10.327C6 10.905 6.43934 11.333 6.994 11.333C7.56067 11.333 8 10.905 8 10.327C8 9.74901 7.56067 9.33301 6.994 9.33301C6.43934 9.33301 6 9.74901 6 10.327Z" fill="black"/>
</svg>
