<svg width="24" height="24" viewBox="0 0 24 24" fill="none" xmlns="http://www.w3.org/2000/svg">
<g clip-path="url(#clip0_2831_523)">
<path d="M11.9996 0C5.37309 0 0 5.37272 0 11.9996C0 18.6265 5.37309 23.9993 11.9996 23.9993C18.6277 23.9993 24 18.6266 24 11.9996C24 5.37267 18.6277 0 11.9996 0ZM14.1067 17.5088C13.6213 18.0474 13.3431 18.3676 12.8191 18.8685C12.0261 19.6268 11.1256 19.8286 10.4256 19.0801C9.4193 18.0039 10.4747 14.73 10.5004 14.606C10.6894 13.7358 11.0667 11.9966 11.0667 11.9966C11.0667 11.9966 10.2517 12.4955 9.76781 12.6725C9.41095 12.8029 9.00727 12.6316 8.90747 12.2865C8.81447 11.9667 8.88853 11.7633 9.08438 11.5448C9.56972 11.0065 9.84792 10.6864 10.3719 10.1855C11.1657 9.42684 12.0654 9.22538 12.7655 9.97345C13.7717 11.0497 13.0293 12.8203 12.7685 14.0749C12.7428 14.1992 12.1243 17.0574 12.1243 17.0574C12.1243 17.0574 12.9393 16.5584 13.4232 16.3811C13.7807 16.2511 14.1845 16.4227 14.2843 16.7675C14.3773 17.0873 14.3025 17.2906 14.1067 17.5088ZM12.8048 8.25539C11.6851 8.35364 10.6985 7.52583 10.6002 6.40538C10.5027 5.28609 11.3305 4.29909 12.4502 4.20159C13.5691 4.1033 14.5565 4.93191 14.6541 6.05119C14.7523 7.17052 13.9237 8.15789 12.8048 8.25539Z" fill="black"/>
</g>
<defs>
<clipPath id="clip0_2831_523">
<rect width="24" height="24" fill="white"/>
</clipPath>
</defs>
</svg>
