<svg width="24" height="24" viewBox="0 0 24 24" fill="none" xmlns="http://www.w3.org/2000/svg">
<path d="M3.99967 23.6654C3.02754 23.6643 2.09552 23.2777 1.40812 22.5902C0.720715 21.9028 0.334067 20.9708 0.333008 19.9987V6.66536C0.334091 5.75087 0.676374 4.86969 1.29288 4.19424C1.90938 3.5188 2.75574 3.09771 3.66634 3.01336V1.33203C3.66634 1.06681 3.7717 0.812461 3.95923 0.624924C4.14677 0.437388 4.40112 0.332031 4.66634 0.332031C4.93156 0.332031 5.18591 0.437388 5.37345 0.624924C5.56098 0.812461 5.66634 1.06681 5.66634 1.33203V2.9987H18.333V1.33203C18.333 1.06681 18.4384 0.812461 18.6259 0.624924C18.8134 0.437388 19.0678 0.332031 19.333 0.332031C19.5982 0.332031 19.8526 0.437388 20.0401 0.624924C20.2276 0.812461 20.333 1.06681 20.333 1.33203V3.01336C21.2436 3.09771 22.09 3.5188 22.7065 4.19424C23.323 4.86969 23.6653 5.75087 23.6663 6.66536V19.9987C23.6656 20.9709 23.2791 21.9032 22.5916 22.5906C21.9041 23.2781 20.9719 23.6647 19.9997 23.6654H3.99967ZM2.33301 19.9987C2.33336 20.4406 2.50907 20.8643 2.82155 21.1768C3.13404 21.4893 3.55775 21.665 3.99967 21.6654H19.9997C20.4416 21.665 20.8653 21.4893 21.1778 21.1768C21.4903 20.8643 21.666 20.4406 21.6663 19.9987V10.9987H2.33301V19.9987ZM21.6663 8.9987V6.66536C21.666 6.22344 21.4903 5.79973 21.1778 5.48724C20.8653 5.17476 20.4416 4.99905 19.9997 4.9987H3.99967C3.55775 4.99905 3.13404 5.17476 2.82155 5.48724C2.50907 5.79973 2.33336 6.22344 2.33301 6.66536V8.9987H21.6663Z" fill="white"/>
</svg>
