<svg width="24" height="24" viewBox="0 0 24 24" fill="none" xmlns="http://www.w3.org/2000/svg">
<g clip-path="url(#clip0_843_2005)">
<path d="M7.43874 6.37578C7.99187 6.87266 8.60124 6.53047 8.79343 6.32891L11.0434 3.91016V17.8414C11.0434 18.3711 11.47 18.7977 11.9997 18.7977C12.5294 18.7977 12.9559 18.3711 12.9559 17.8414V3.90547L15.2059 6.32422C15.5669 6.71328 16.1716 6.73203 16.5606 6.37109C16.9497 6.01016 16.9684 5.40547 16.6075 5.01641L12.6981 0.816406C12.5153 0.624219 12.2622 0.511719 11.9997 0.511719C11.7325 0.511719 11.4794 0.624219 11.3012 0.816406L7.39187 5.01641C7.03093 5.41016 7.04499 6.02422 7.43874 6.37578Z" fill="white"/>
<path d="M22.5281 15.7031C21.9984 15.7031 21.5719 16.1297 21.5719 16.6594V21.5719H2.42812V16.6594C2.42812 16.1297 2.00156 15.7031 1.47187 15.7031C0.942187 15.7031 0.515625 16.1297 0.515625 16.6594V22.5281C0.515625 23.0578 0.942187 23.4844 1.47187 23.4844H22.5281C23.0578 23.4844 23.4844 23.0578 23.4844 22.5281V16.6594C23.4844 16.1297 23.0578 15.7031 22.5281 15.7031Z" fill="white"/>
</g>
<defs>
<clipPath id="clip0_843_2005">
<rect width="24" height="24" fill="white"/>
</clipPath>
</defs>
</svg>
