<!DOCTYPE svg PUBLIC "-//W3C//DTD SVG 1.1//EN" "http://www.w3.org/Graphics/SVG/1.1/DTD/svg11.dtd">
<!-- Uploaded to: SVG Repo, www.svgrepo.com, Transformed by: SVG Repo Mixer Tools -->
<svg height="800px" width="800px" version="1.1" id="_x32_" xmlns="http://www.w3.org/2000/svg" xmlns:xlink="http://www.w3.org/1999/xlink" viewBox="0 0 512 512" xml:space="preserve" fill="#000000">
<g id="SVGRepo_bgCarrier" stroke-width="0"/>
<g id="SVGRepo_tracerCarrier" stroke-linecap="round" stroke-linejoin="round"/>
<g id="SVGRepo_iconCarrier"> <style type="text/css"> .st0{fill:#ffffff;} </style> <g> <path class="st0" d="M197.12,454.422c0.691,31.596,25.996,56.883,57.607,57.566l1.299,0.012c31.733,0,58.136-25.831,58.855-57.578 l0.037-1.627H197.085L197.12,454.422z"/> <path class="st0" d="M476.167,371.204c-6.332-5.078-11.761-10.571-16.6-16.798c-4.014-5.159-7.548-10.714-10.802-16.98 c-5.182-9.996-9.515-21.646-13.245-35.617c-2.306-8.572-4.492-18.401-6.879-30.94c-1.048-5.474-2.057-11.044-3.078-16.685 c-1.993-11.006-4.056-22.388-6.543-33.828c-4.668-21.312-9.676-37.388-16.238-52.12c-6.782-15.233-14.756-29.119-23.7-41.281 c-7.145-9.69-15.033-18.432-23.442-25.971c-13.468-12.104-28.57-21.421-44.888-27.698c-3.864-1.49-7.981-2.853-12.263-4.064 c3.399-6.677,5.177-14.092,5.161-21.576c0-6.46-1.262-12.702-3.752-18.556c-3.608-8.525-9.569-15.768-17.236-20.943 C274.79,2.818,265.596,0,255.899,0c-6.37,0-12.578,1.262-18.445,3.75c-8.492,3.572-15.744,9.534-20.969,17.244 c-5.328,7.884-8.144,17.1-8.144,26.654c0,6.444,1.264,12.686,3.752,18.556c0.437,1.032,0.936,2.026,1.462,3.008 c-2.236,0.625-4.454,1.293-6.636,2.03c-11.283,3.812-22.054,9.03-32.015,15.508c-14.227,9.232-27.154,21.192-38.418,35.548 c-10.384,13.191-19.559,28.653-27.269,45.951c-4.066,9.119-7.601,19.006-10.807,30.241c-5.14,18.148-8.447,36.347-11.365,52.403 l-0.582,3.199c-2.149,11.817-4.179,22.978-6.586,33.777c-2.127,9.604-4.317,17.853-6.694,25.229 c-4.068,12.612-8.816,23.195-14.515,32.345c-6.287,10.07-13.758,18.498-22.838,25.757c-9.95,7.935-13.816,21.343-9.618,33.366 c4.218,12.018,15.6,20.089,28.323,20.089h402.934c12.723,0,24.103-8.071,28.321-20.089 C489.989,392.543,486.12,379.135,476.167,371.204z M145.545,264.534c1.997-11.025,3.884-21.436,6.06-31.378 c3.608-16.63,7.667-29.872,12.405-40.478c5.082-11.398,10.876-21.537,17.221-30.132c4.74-6.428,9.858-12.12,15.213-16.91 c8.123-7.29,16.747-12.64,26.359-16.355c10.235-3.925,21.095-5.835,33.201-5.835c10.815,0,20.6,1.522,29.915,4.647 c6.522,2.201,12.58,5.14,18.513,8.972c8.67,5.64,16.722,13.148,23.928,22.314c7.351,9.352,13.954,20.551,19.624,33.304 c2.91,6.502,5.491,13.769,7.89,22.209c4.012,14.068,7.048,30.128,10.058,46.728l0.668,3.676 c2.089,11.522,4.249,23.439,6.945,35.594c2.506,11.281,5.179,21.292,8.168,30.606c3.905,12.131,8.366,23.001,13.602,33.148H116.712 c7.088-13.77,12.892-29.251,17.735-47.306c3.426-12.811,5.998-25.548,7.857-35.218 C143.436,276.173,144.501,270.299,145.545,264.534z M269.5,38.564c1.834,2.725,2.766,5.784,2.766,9.084 c0,2.197-0.427,4.328-1.266,6.336c-1.219,2.876-3.321,5.419-5.922,7.158c-1.736,1.169-3.7,1.98-5.489,2.384l-3.517-0.074 l-2.812,0.043l-0.668,0.058c-1.013-0.213-1.989-0.508-2.909-0.893c-2.914-1.246-5.396-3.296-7.178-5.924 c-1.836-2.733-2.768-5.792-2.768-9.088c0-2.201,0.429-4.332,1.279-6.336c1.196-2.865,3.292-5.404,5.91-7.154 c2.706-1.832,5.761-2.768,9.078-2.78c2.162,0,4.292,0.431,6.322,1.277C265.209,33.874,267.756,35.97,269.5,38.564z"/> </g> </g>
</svg>