<svg width="30" height="30" viewBox="0 0 30 30" fill="none" xmlns="http://www.w3.org/2000/svg">
<path d="M23.2941 1.03672H17.0738C17.0681 1.03672 17.0624 1.03737 17.0567 1.03756C16.59 0.408531 15.8421 0 15.0004 0C14.1587 0 13.4108 0.408531 12.9441 1.03756C12.9384 1.03737 12.9327 1.03672 12.927 1.03672H6.70666C5.00962 1.03672 3.62891 2.41743 3.62891 4.11447V26.9222C3.62891 28.6193 5.00962 30 6.70666 30H23.2941C24.9912 30 26.3719 28.6193 26.3719 26.9222V4.11447C26.3719 2.41743 24.9912 1.03672 23.2941 1.03672ZM15.0004 0.971922C15.8758 0.971922 16.5879 1.68408 16.5879 2.5594V3.07775C16.5879 3.34613 16.8054 3.56371 17.0738 3.56371H19.1473C19.451 3.56371 19.698 3.81078 19.698 4.11447C19.698 4.41816 19.451 4.66523 19.1473 4.66523H10.8535C10.5498 4.66523 10.3028 4.41816 10.3028 4.11447C10.3028 3.81078 10.5498 3.56371 10.8535 3.56371H12.927C13.1954 3.56371 13.4129 3.34613 13.4129 3.07775V2.5594C13.4129 1.68408 14.125 0.971922 15.0004 0.971922ZM10.8535 5.63715H19.1473C19.9869 5.63715 20.6699 4.95408 20.6699 4.11447C20.6699 4.10359 20.6694 4.09289 20.6691 4.08207H23.2941C23.312 4.08207 23.3265 4.09659 23.3265 4.11447V26.9222C23.3265 26.9401 23.312 26.9546 23.2941 26.9546H6.70666C6.68884 26.9546 6.67426 26.9401 6.67426 26.9222V4.11447C6.67426 4.09659 6.68884 4.08207 6.70666 4.08207H9.33169C9.33143 4.09289 9.33085 4.10359 9.33085 4.11447C9.33085 4.95408 10.0139 5.63715 10.8535 5.63715ZM25.4 26.9222C25.4 28.0834 24.4553 29.0281 23.2941 29.0281H6.70666C5.54547 29.0281 4.60083 28.0834 4.60083 26.9222V4.11447C4.60083 2.95335 5.54547 2.00864 6.70666 2.00864H12.5013C12.4622 2.18618 12.441 2.37032 12.441 2.5594V2.59179H10.8535C10.3985 2.59179 9.98968 2.79272 9.71048 3.11015H6.70666C6.15286 3.11015 5.70234 3.56067 5.70234 4.11447V26.9222C5.70234 27.476 6.15286 27.9266 6.70666 27.9266H23.2941C23.8479 27.9266 24.2985 27.476 24.2985 26.9222V4.11447C24.2985 3.56067 23.8479 3.11015 23.2941 3.11015H20.2903C20.011 2.79272 19.6023 2.59179 19.1473 2.59179H17.5598V2.5594C17.5598 2.37032 17.5385 2.18618 17.4995 2.00864H23.2941C24.4553 2.00864 25.4 2.95335 25.4 4.11447V26.9222Z" fill="white"/>
<path d="M15.0006 4.08286C15.2691 4.08286 15.4866 3.86528 15.4866 3.5969V2.56018C15.4866 2.2918 15.2691 2.07422 15.0006 2.07422C14.7322 2.07422 14.5146 2.2918 14.5146 2.56018V3.5969C14.5146 3.86528 14.7322 4.08286 15.0006 4.08286Z" fill="white"/>
<path d="M14.4821 11.3391H20.7024C20.9708 11.3391 21.1883 11.1215 21.1883 10.8531C21.1883 10.5848 20.9708 10.3672 20.7024 10.3672H14.4821C14.2136 10.3672 13.9961 10.5848 13.9961 10.8531C13.9961 11.1215 14.2136 11.3391 14.4821 11.3391Z" fill="white"/>
<path d="M8.95484 10.5111C8.76505 10.7009 8.76505 11.0086 8.95484 11.1983L9.99156 12.235C10.0865 12.3299 10.2109 12.3774 10.3352 12.3774C10.4596 12.3774 10.584 12.3299 10.6789 12.235L12.7523 10.1616C12.9421 9.9718 12.9421 9.66409 12.7523 9.47437C12.5625 9.28459 12.2548 9.28459 12.0651 9.47437L10.3352 11.2042L9.64218 10.5111C9.45233 10.3213 9.14469 10.3213 8.95484 10.5111Z" fill="white"/>
<path d="M14.4821 16.5227H20.7024C20.9708 16.5227 21.1883 16.3051 21.1883 16.0367C21.1883 15.7684 20.9708 15.5508 20.7024 15.5508H14.4821C14.2136 15.5508 13.9961 15.7684 13.9961 16.0367C13.9961 16.3051 14.2136 16.5227 14.4821 16.5227Z" fill="white"/>
<path d="M12.0649 14.658L10.3352 16.3878L9.64212 15.6947C9.45227 15.5049 9.14462 15.5049 8.95484 15.6947C8.76505 15.8845 8.76505 16.1922 8.95484 16.3819L9.99156 17.4186C10.0865 17.5135 10.2109 17.561 10.3352 17.561C10.4596 17.561 10.584 17.5135 10.6789 17.4186L12.7523 15.3452C12.9421 15.1554 12.9421 14.8477 12.7523 14.658C12.5624 14.4682 12.2548 14.4682 12.0649 14.658Z" fill="white"/>
<path d="M14.4821 21.7063H20.7024C20.9708 21.7063 21.1883 21.4887 21.1883 21.2203C21.1883 20.952 20.9708 20.7344 20.7024 20.7344H14.4821C14.2136 20.7344 13.9961 20.952 13.9961 21.2203C13.9961 21.4887 14.2136 21.7063 14.4821 21.7063Z" fill="white"/>
<path d="M12.0649 19.8416L10.3352 21.5714L9.64212 20.8783C9.45227 20.6885 9.14462 20.6885 8.95484 20.8783C8.76505 21.0681 8.76505 21.3758 8.95484 21.5655L9.99156 22.6022C10.0865 22.6971 10.2109 22.7446 10.3352 22.7446C10.4596 22.7446 10.584 22.6971 10.6789 22.6022L12.7523 20.5288C12.9421 20.339 12.9421 20.0313 12.7523 19.8416C12.5624 19.6518 12.2548 19.6518 12.0649 19.8416Z" fill="white"/>
</svg>
