<svg width="30" height="30" viewBox="0 0 30 30" fill="none" xmlns="http://www.w3.org/2000/svg">
<g clip-path="url(#clip0_1130_3208)">
<path d="M5.62507 8.55615V0.9375H3.75007V8.55615C2.94507 8.76408 2.23198 9.2336 1.72287 9.89091C1.21376 10.5482 0.9375 11.3561 0.9375 12.1875C0.9375 13.0189 1.21376 13.8268 1.72287 14.4841C2.23198 15.1414 2.94507 15.6109 3.75007 15.8188V29.0625H5.62507V15.8188C6.43007 15.6109 7.14316 15.1414 7.65226 14.4841C8.16137 13.8268 8.43763 13.0189 8.43763 12.1875C8.43763 11.3561 8.16137 10.5482 7.65226 9.89091C7.14316 9.2336 6.43007 8.76408 5.62507 8.55615ZM4.68757 14.0625C4.31673 14.0625 3.95422 13.9525 3.64587 13.7465C3.33753 13.5405 3.09721 13.2476 2.95529 12.905C2.81338 12.5624 2.77625 12.1854 2.84859 11.8217C2.92094 11.458 3.09952 11.1239 3.36174 10.8617C3.62397 10.5995 3.95806 10.4209 4.32177 10.3485C4.68549 10.2762 5.06249 10.3133 5.4051 10.4552C5.74771 10.5971 6.04054 10.8375 6.24657 11.1458C6.4526 11.4541 6.56257 11.8167 6.56257 12.1875C6.56201 12.6846 6.36428 13.1612 6.01278 13.5127C5.66127 13.8642 5.18468 14.0619 4.68757 14.0625Z" fill="white"/>
<path d="M15.9376 16.9937V0.9375H14.0626V16.9937C13.2576 17.2016 12.5445 17.6711 12.0354 18.3284C11.5263 18.9857 11.25 19.7936 11.25 20.625C11.25 21.4564 11.5263 22.2643 12.0354 22.9216C12.5445 23.5789 13.2576 24.0484 14.0626 24.2563V29.0625H15.9376V24.2563C16.7426 24.0484 17.4557 23.5789 17.9648 22.9216C18.4739 22.2643 18.7501 21.4564 18.7501 20.625C18.7501 19.7936 18.4739 18.9857 17.9648 18.3284C17.4557 17.6711 16.7426 17.2016 15.9376 16.9937ZM15.0001 22.5C14.6292 22.5 14.2667 22.39 13.9584 22.184C13.65 21.978 13.4097 21.6851 13.2678 21.3425C13.1259 20.9999 13.0887 20.6229 13.1611 20.2592C13.2334 19.8955 13.412 19.5614 13.6742 19.2992C13.9365 19.037 14.2706 18.8584 14.6343 18.786C14.998 18.7137 15.375 18.7508 15.7176 18.8927C16.0602 19.0346 16.353 19.275 16.5591 19.5833C16.7651 19.8916 16.8751 20.2542 16.8751 20.625C16.8745 21.1221 16.6768 21.5987 16.3253 21.9502C15.9738 22.3017 15.4972 22.4994 15.0001 22.5Z" fill="white"/>
<path d="M26.2501 4.80615V0.9375H24.3751V4.80615C23.5701 5.01408 22.857 5.4836 22.3479 6.14091C21.8388 6.79823 21.5625 7.60608 21.5625 8.4375C21.5625 9.26892 21.8388 10.0768 22.3479 10.7341C22.857 11.3914 23.5701 11.8609 24.3751 12.0688V29.0625H26.2501V12.0688C27.0551 11.8609 27.7682 11.3914 28.2773 10.7341C28.7864 10.0768 29.0626 9.26892 29.0626 8.4375C29.0626 7.60608 28.7864 6.79823 28.2773 6.14091C27.7682 5.4836 27.0551 5.01408 26.2501 4.80615ZM25.3126 10.3125C24.9417 10.3125 24.5792 10.2025 24.2709 9.99651C23.9625 9.79048 23.7222 9.49764 23.5803 9.15503C23.4384 8.81242 23.4012 8.43542 23.4736 8.07171C23.5459 7.70799 23.7245 7.3739 23.9867 7.11167C24.249 6.84945 24.5831 6.67087 24.9468 6.59853C25.3105 6.52618 25.6875 6.56331 26.0301 6.70523C26.3727 6.84714 26.6655 7.08746 26.8716 7.39581C27.0776 7.70415 27.1876 8.06666 27.1876 8.4375C27.187 8.93461 26.9893 9.4112 26.6378 9.76271C26.2863 10.1142 25.8097 10.3119 25.3126 10.3125Z" fill="white"/>
</g>
<defs>
<clipPath id="clip0_1130_3208">
<rect width="30" height="30" fill="white"/>
</clipPath>
</defs>
</svg>
