<svg width="30" height="30" viewBox="0 0 30 30" fill="none" xmlns="http://www.w3.org/2000/svg">
<path d="M22.9999 3.49999H20.4999V2.99299C20.4999 2.44548 20.0514 2.00001 19.4999 2.00001H17.9999V1.49301C17.9999 0.66951 17.3269 0 16.5 0H13.4999C12.6729 0 12 0.66951 12 1.49301V2.00001H10.5C9.94847 2.00001 9.49997 2.44554 9.49997 2.99299V3.49999H6.99999C5.62147 3.49999 4.5 4.62146 4.5 5.99998V27.5C4.5 28.8785 5.62147 29.9999 6.99999 29.9999H23C24.3785 29.9999 25.4999 28.8785 25.4999 27.5V5.99998C25.4999 4.62152 24.3784 3.49999 22.9999 3.49999ZM10.4999 4.00002V3.00002H12.4999C12.7759 3.00002 12.9999 2.77603 12.9999 2.50004V1.49301C12.9999 1.21648 13.2194 1.00001 13.4999 1.00001H16.4999C16.7804 1.00001 16.9999 1.21648 16.9999 1.49301V2.49999C16.9999 2.77597 17.2239 2.99996 17.4998 2.99996L19.4999 2.99299L19.4923 6.50001H10.4999V4.00002ZM14.9999 24.5C11.4159 24.5 8.49991 21.584 8.49991 18C8.49991 14.416 11.4159 11.5 14.9999 11.5C18.5839 11.5 21.4999 14.416 21.4999 18C21.4999 21.584 18.5839 24.5 14.9999 24.5Z" fill="white"/>
<path d="M15 12.5C11.967 12.5 9.5 14.9675 9.5 18C9.5 21.033 11.967 23.5 15 23.5C18.0325 23.5 20.5 21.033 20.5 18C20.4999 14.9675 18.0325 12.5 15 12.5ZM17.9285 15.7575L14.9285 20.7575C14.8495 20.8895 14.7135 20.9774 14.561 20.9964C14.5405 20.999 14.52 21 14.5 21C14.368 21 14.2405 20.948 14.1465 20.8535L12.1465 18.8535C11.951 18.6585 11.951 18.342 12.1465 18.1465C12.3414 17.9515 12.6579 17.9515 12.8534 18.1465L14.4004 19.694L17.0709 15.243C17.2129 15.0055 17.5204 14.929 17.7569 15.0715C17.994 15.2135 18.0705 15.5205 17.9285 15.7575Z" fill="white"/>
</svg>
