<svg width="30" height="30" viewBox="0 0 30 30" fill="none" xmlns="http://www.w3.org/2000/svg">
<g clip-path="url(#clip0_1044_374)">
<path d="M29.4003 21.8586L18.89 3.65394C17.1733 0.646602 12.8321 0.646602 11.1216 3.65394L0.605129 21.8586C-1.11159 24.8659 1.02505 28.6019 4.48936 28.6019H25.479C28.9433 28.6019 31.117 24.8288 29.4003 21.8586ZM14.9996 24.5633C14.0857 24.5633 13.3261 23.8038 13.3261 22.8898C13.3261 21.9759 14.0857 21.2163 14.9996 21.2163C15.9136 21.2163 16.6731 21.9759 16.6361 22.933C16.6793 23.8038 15.8765 24.5633 14.9996 24.5633ZM16.5249 13.7443C16.4508 15.0411 16.3705 16.3317 16.2964 17.6285C16.2594 18.0484 16.2594 18.4313 16.2594 18.845C16.2223 19.5305 15.6851 20.0616 14.9996 20.0616C14.3142 20.0616 13.7831 19.5675 13.7399 18.8821C13.6287 16.8628 13.5114 14.8805 13.4002 12.8612C13.3632 12.3302 13.3261 11.7929 13.2829 11.2618C13.2829 10.385 13.7769 9.66245 14.5797 9.43397C15.3825 9.24254 16.1791 9.6254 16.5249 10.385C16.6422 10.6505 16.6793 10.916 16.6793 11.2248C16.6422 12.0708 16.562 12.9106 16.5249 13.7443Z" fill="white"/>
</g>
<defs>
<clipPath id="clip0_1044_374">
<rect width="30" height="30" fill="white"/>
</clipPath>
</defs>
</svg>
