<svg width="30" height="30" viewBox="0 0 30 30" fill="none" xmlns="http://www.w3.org/2000/svg">
<path d="M21.0765 0H3.40234V30H26.5982V5.84647L21.0765 0ZM21.3405 1.63076L25.058 5.56701H21.3405V1.63076ZM25.6704 29.0722H4.33018V0.927835H20.4127V6.49485H25.6704V29.0722Z" fill="white"/>
<path d="M13.7635 7.72266H6.34082V8.65049H13.7635V7.72266Z" fill="white"/>
<path d="M23.6604 11.9062H6.34082V12.8341H23.6604V11.9062Z" fill="white"/>
<path d="M14 16H6V17H14V16Z" fill="white"/>
<path d="M14 24H6V25H14V24Z" fill="white"/>
<path d="M14 22.0588V24.4118C14 24.7366 14.2634 25 14.5882 25H16.9412C17.0972 25 17.2468 24.938 17.3571 24.8277L23.8277 18.3571C24.0574 18.1274 24.0574 17.7549 23.8277 17.5252L21.4747 15.1723C21.3645 15.062 21.2149 15 21.0589 15C20.9029 15 20.7532 15.062 20.6429 15.1723L14.1723 21.6429C14.062 21.7532 14 21.9028 14 22.0588ZM15.1765 22.3025L21.0589 16.4201L22.5799 17.9412L16.6975 23.8235H15.1765V22.3025Z" fill="white"/>
</svg>
