<svg width="44" height="44" viewBox="0 0 44 44" fill="none" xmlns="http://www.w3.org/2000/svg">
<path d="M37.1253 30.5939C35.9827 30.5967 34.9281 30.9748 34.0797 31.61L34.0935 31.6004L29.5573 27.4782C30.6848 25.9698 31.3627 24.0695 31.3627 22.0098C31.3627 19.7905 30.5762 17.7555 29.2658 16.1674L29.2782 16.1825L34.2887 11.1734C35.0917 11.711 36.079 12.0314 37.1405 12.0314C39.9963 12.0314 42.3105 9.71728 42.3105 6.86141C42.3105 4.00553 39.9963 1.69141 37.1405 1.69141C34.2846 1.69141 31.9705 4.00553 31.9705 6.86141C31.9705 7.92428 32.2908 8.91153 32.8408 9.73241L32.8285 9.71316L27.8193 14.7223C26.245 13.4243 24.2072 12.6364 21.9838 12.6364C20.6955 12.6364 19.4703 12.9004 18.3566 13.3789L18.4171 13.3555L16.9981 10.7788C18.0857 9.83278 18.7691 8.44816 18.7691 6.90266C18.7691 4.07016 16.4728 1.77528 13.6417 1.77528C10.8106 1.77528 8.51433 4.07153 8.51433 6.90266C8.51433 9.73516 10.8106 12.03 13.6417 12.03C13.6513 12.03 13.6623 12.03 13.672 12.03C14.2192 12.0218 14.7403 11.9297 15.2285 11.7633L15.1927 11.7743L16.6186 14.3634C14.2027 16.0725 12.6448 18.8528 12.6393 21.9988V22.0002C12.6531 22.9585 12.8112 23.8757 13.0931 24.7364L13.0752 24.6718L11.1186 25.5009C10.1822 24.1658 8.65045 23.305 6.91658 23.305C4.08958 23.305 1.79883 25.5958 1.79883 28.4228C1.79883 31.2498 4.08958 33.5405 6.91658 33.5405C9.74358 33.5405 12.0343 31.2498 12.0343 28.4228C12.0343 28.0598 11.9972 27.7064 11.9257 27.3654L11.9312 27.3984L13.8823 26.5707C15.487 29.4485 18.512 31.3625 21.9838 31.3625C24.3626 31.3625 26.5323 30.4633 28.1713 28.9865L28.1631 28.9934L32.713 33.128C32.2523 33.876 31.9773 34.7794 31.9718 35.7488C31.9718 38.5964 34.2805 40.9064 37.1281 40.9064C39.9757 40.9064 42.2843 38.5978 42.2843 35.7502C42.2843 32.9025 39.9757 30.5939 37.1281 30.5939H37.1253ZM10.5741 6.87516C10.5741 5.16603 11.9587 3.78141 13.6678 3.78141C15.377 3.78141 16.7616 5.16603 16.7616 6.87516C16.7616 8.58428 15.377 9.96891 13.6678 9.96891C11.9601 9.96616 10.5768 8.58291 10.5741 6.87516ZM6.87533 31.5152C5.16758 31.5138 3.78433 30.1305 3.78433 28.4228C3.78433 26.715 5.16895 25.3304 6.8767 25.3304C8.58445 25.3304 9.9677 26.7137 9.96908 28.4214C9.96633 30.1292 8.58308 31.5124 6.87533 31.5152ZM37.1253 3.78141C38.8345 3.78141 40.2191 5.16603 40.2191 6.87516C40.2191 8.58428 38.8345 9.96891 37.1253 9.96891C35.4162 9.96891 34.0316 8.58428 34.0316 6.87516C34.0343 5.16741 35.4176 3.78416 37.1253 3.78141ZM14.6991 22.0002C14.6991 22.0002 14.6991 22.0002 14.6991 21.9988C14.6991 17.9673 17.9675 14.6989 21.999 14.6989C26.0305 14.6989 29.2988 17.9673 29.2988 21.9988C29.2988 26.0303 26.0305 29.2987 21.999 29.2987C17.9688 29.2945 14.7046 26.0289 14.6991 22.0002ZM37.1253 38.8439C35.4162 38.8439 34.0316 37.4593 34.0316 35.7502C34.0316 34.041 35.4162 32.6564 37.1253 32.6564C38.8345 32.6564 40.2191 34.041 40.2191 35.7502C40.2163 37.4579 38.8331 38.8412 37.1253 38.8439Z" fill="#626262"/>
</svg>
