<svg width="46" height="50" viewBox="0 0 46 50" fill="none" xmlns="http://www.w3.org/2000/svg">
<path d="M40.3303 2.05884H9.08031C7.37454 2.06075 5.73918 2.73921 4.53302 3.94537C3.32686 5.15154 2.6484 6.78689 2.64648 8.49266V47.0956C2.6465 47.3394 2.74334 47.5731 2.9157 47.7455C3.08807 47.9179 3.32184 48.0147 3.5656 48.0147H36.6538C36.8976 48.0147 37.1314 47.9179 37.3038 47.7455C37.4761 47.5732 37.573 47.3394 37.573 47.0956C37.573 46.8518 37.4761 46.6181 37.3038 46.4457C37.1314 46.2733 36.8976 46.1765 36.6538 46.1765H4.48472V45.2574C4.48608 44.039 4.97069 42.8708 5.83223 42.0093C6.69378 41.1477 7.8619 40.6631 9.08031 40.6618H40.3303C40.5741 40.6618 40.8078 40.5649 40.9802 40.3926C41.1526 40.2202 41.2494 39.9864 41.2494 39.7427V2.97796C41.2494 2.73419 41.1526 2.50042 40.9802 2.32805C40.8078 2.15569 40.5741 2.05885 40.3303 2.05884ZM19.1906 3.89707H32.0582V23.1988L26.174 18.7867C26.0149 18.6674 25.8214 18.603 25.6225 18.603C25.4237 18.603 25.2302 18.6674 25.0711 18.7867L19.1906 23.1983V3.89707ZM39.4112 38.8235H9.08031C8.22389 38.823 7.37603 38.994 6.58674 39.3264C5.79746 39.6588 5.08273 40.1459 4.48472 40.7589V8.49266C4.48608 7.27425 4.97069 6.10613 5.83223 5.24459C6.69378 4.38304 7.8619 3.89843 9.08031 3.89707H17.3524V25.0368C17.3523 25.2075 17.3999 25.3748 17.4896 25.5201C17.5793 25.6653 17.7078 25.7826 17.8604 25.859C18.0131 25.9353 18.1841 25.9676 18.3541 25.9523C18.5241 25.937 18.6865 25.8746 18.823 25.7721L25.6229 20.671L32.426 25.7721C32.5626 25.8745 32.7249 25.9368 32.8949 25.9521C33.0649 25.9674 33.2358 25.9351 33.3884 25.8587C33.5411 25.7824 33.6695 25.6651 33.7592 25.5199C33.8489 25.3747 33.8965 25.2074 33.8965 25.0368V3.89707H39.4112V38.8235Z" fill="white"/>
</svg>
