<svg width="32" height="32" viewBox="0 0 32 32" fill="none" xmlns="http://www.w3.org/2000/svg">
<g clip-path="url(#clip0_3640_19)">
<path d="M28.1199 20.488L30.6666 21.992L15.9999 30.6654L1.33325 21.9894L3.87992 20.4854L5.19059 21.2614L3.95459 21.9907L15.9999 29.116L28.0439 21.9934L26.8079 21.264L28.1199 20.488ZM25.9999 15.332C25.9999 15.372 25.9906 15.4067 25.9879 15.4454L28.0453 16.66L22.4479 19.9707C22.1846 20.2082 21.8763 20.3905 21.5413 20.5067L15.9999 23.7827L3.95325 16.6574L7.33325 14.6627V13.1147L1.33325 16.656L15.9999 25.332L30.6666 16.6587L25.9999 13.9027V15.332ZM18.6666 9.33203V7.9987H11.9999V9.33203H18.6666ZM13.3333 10.6654V11.9987H17.3333V10.6654H13.3333ZM9.33325 3.33203C9.33325 2.21203 10.6026 1.33203 12.2226 1.33203H23.9999V15.9987H21.3333V18.6654H12.6666C11.7827 18.6647 10.9353 18.3132 10.3103 17.6883C9.68537 17.0633 9.33396 16.2159 9.33325 15.332V3.33203ZM10.6666 3.33203C10.6666 3.56803 11.2573 3.9987 12.2226 3.9987H21.3333V14.6654H22.6666V2.66536H12.2226C11.2573 2.66536 10.6666 3.09603 10.6666 3.33203ZM10.6666 15.332C10.6673 15.8622 10.8782 16.3705 11.2532 16.7455C11.6281 17.1204 12.1364 17.3313 12.6666 17.332H19.9999V5.33203H12.2226C11.6885 5.33678 11.159 5.23243 10.6666 5.02536V15.332Z" fill="white"/>
</g>
<defs>
<clipPath id="clip0_3640_19">
<rect width="32" height="32" fill="white"/>
</clipPath>
</defs>
</svg>
