<svg width="30" height="30" viewBox="0 0 30 30" fill="none" xmlns="http://www.w3.org/2000/svg">
<path d="M27.9971 17.9202L26.4703 16.3935C25.8468 15.7699 24.8321 15.7699 24.2085 16.3935L15.9639 24.6386L14.8271 28.806L14.5491 29.084C14.3412 29.2919 14.3407 29.6272 14.5459 29.8367L14.5432 29.8474L14.5534 29.8447C14.6578 29.9465 14.7928 29.9985 14.9284 29.9985C15.0655 29.9985 15.2026 29.946 15.3071 29.8415L15.5857 29.5629L19.7525 28.4267L27.9976 20.1815C28.6207 19.5585 28.6207 18.5438 27.9971 17.9202ZM17.2014 24.9172L22.6887 19.4299L24.9618 21.7029L19.4739 27.1902L17.2014 24.9172ZM16.7176 25.9485L18.4426 27.6735L16.0705 28.3206L16.7176 25.9485ZM27.2396 19.4245L25.7187 20.9454L23.4457 18.6724L24.9666 17.1515C25.1728 16.9452 25.5071 16.9452 25.7134 17.1515L27.2396 18.6783C27.4453 18.8835 27.4453 19.2188 27.2396 19.4245Z" fill="white"/>
<path d="M12.2896 28.2954C6.33569 27.8486 2.86587 26.0357 2.62373 24.5561C2.61944 24.532 2.61409 24.5089 2.60659 24.4859V19.9784C2.61623 19.987 2.62748 19.9955 2.63712 20.0041C2.76141 20.1139 2.88891 20.2232 3.03248 20.3282C5.05319 21.8523 9.08605 23.0357 14.928 23.0357C15.2237 23.0357 15.4637 22.7962 15.4637 22.5C15.4637 22.2037 15.2237 21.9643 14.928 21.9643C14.485 21.9643 14.0511 21.9557 13.6252 21.9407C13.3669 21.9311 13.1178 21.9145 12.8661 21.9C12.7069 21.8909 12.543 21.885 12.3866 21.8737C12.0523 21.8496 11.7277 21.8186 11.4068 21.7854C11.3425 21.7784 11.275 21.7741 11.2112 21.7671C10.8437 21.727 10.4859 21.6809 10.1371 21.63C10.1243 21.6284 10.1109 21.6268 10.0985 21.6252C8.28837 21.3579 6.7348 20.9502 5.51926 20.4654C5.51016 20.4616 5.50051 20.4584 5.49194 20.4546C5.27016 20.3652 5.06176 20.2736 4.86301 20.1793C4.83784 20.1675 4.81105 20.1557 4.78587 20.1434C4.60748 20.0577 4.44301 19.9693 4.28498 19.8804C4.24587 19.8579 4.20462 19.8359 4.16658 19.8134C4.02944 19.733 3.90408 19.6505 3.78408 19.568C3.73641 19.5348 3.68766 19.5021 3.64319 19.4689C3.54248 19.3945 3.45141 19.3189 3.36462 19.2434C3.31534 19.2005 3.26658 19.1577 3.22212 19.1143C3.15141 19.0457 3.08873 18.9766 3.03034 18.9075C2.98748 18.8571 2.94676 18.8068 2.91034 18.7559C2.86373 18.6911 2.82408 18.6262 2.78873 18.5614C2.75926 18.5073 2.73301 18.4532 2.71051 18.3991C2.6848 18.3354 2.66444 18.2716 2.64944 18.2084C2.62855 18.1211 2.60659 18.0332 2.60659 17.947V13.5504C2.61623 13.5589 2.62748 13.5675 2.63712 13.5761C2.76141 13.6859 2.88891 13.7952 3.03248 13.9002C5.05319 15.4237 9.08605 16.6071 14.928 16.6071C20.7566 16.6071 24.783 15.4291 26.8086 13.9104C26.9639 13.7968 27.1032 13.6795 27.2366 13.5605C27.2409 13.5568 27.2457 13.553 27.2494 13.5493V15.5357C27.2494 15.832 27.4894 16.0714 27.7852 16.0714C28.0809 16.0714 28.3209 15.832 28.3209 15.5357V11.7857V11.5179V5.08929V4.82143C28.3209 4.72393 28.2877 4.63768 28.2427 4.55893C27.6228 2.26071 23.0055 0 14.928 0C6.85051 0 2.23319 2.26071 1.61337 4.55893C1.56783 4.63768 1.53516 4.72393 1.53516 4.82143V5.08929V11.5179V11.7857V17.9464V18.2143V24.6429C1.53516 24.7291 1.55766 24.8105 1.59676 24.8829C2.20694 27.472 7.32409 28.9971 12.2098 29.3636C12.2232 29.3646 12.2371 29.3652 12.2505 29.3652C12.5286 29.3652 12.7632 29.1514 12.7841 28.8696C12.8061 28.575 12.5848 28.3173 12.2896 28.2954ZM2.92855 7.39125C3.08926 7.51768 3.26283 7.6425 3.45087 7.76411C3.48998 7.78929 3.53391 7.81393 3.57462 7.83911C3.73212 7.93714 3.89873 8.03304 4.07391 8.12732C4.13873 8.16214 4.20355 8.19643 4.27051 8.23071C4.46605 8.33036 4.67123 8.42679 4.88712 8.52107C4.92248 8.53661 4.95462 8.55268 4.99051 8.56768C5.24176 8.67429 5.50855 8.77607 5.78605 8.87411C5.86266 8.90143 5.94301 8.92714 6.02176 8.95393C6.24248 9.02839 6.47069 9.09964 6.70694 9.16875C6.79212 9.19339 6.87569 9.21911 6.96301 9.24321C7.27641 9.33 7.59998 9.4125 7.93962 9.48857C7.98623 9.49929 8.03659 9.50839 8.08373 9.51857C8.38319 9.58393 8.69391 9.64446 9.01319 9.70071C9.12141 9.72 9.23123 9.73821 9.34159 9.75643C9.64534 9.80625 9.95819 9.85232 10.2791 9.89411C10.3616 9.90482 10.4403 9.91661 10.5239 9.92732C10.9225 9.97554 11.335 10.0168 11.7587 10.0521C11.8632 10.0607 11.9719 10.0671 12.078 10.0746C12.4171 10.0993 12.7637 10.1196 13.1184 10.1357C13.2475 10.1416 13.3761 10.1475 13.5078 10.1518C13.9702 10.1679 14.4405 10.1786 14.9275 10.1786C15.4144 10.1786 15.8853 10.1673 16.3471 10.1518C16.4784 10.1475 16.6069 10.1411 16.7366 10.1357C17.0912 10.1196 17.4378 10.0993 17.7769 10.0746C17.883 10.0666 17.9912 10.0607 18.0962 10.0521C18.52 10.0173 18.9325 9.97554 19.331 9.92732C19.4146 9.91714 19.4934 9.90482 19.5759 9.89411C19.8968 9.85232 20.2091 9.80625 20.5134 9.75643C20.6237 9.73821 20.7335 9.72 20.8418 9.70071C21.161 9.64446 21.4718 9.58393 21.7712 9.51857C21.8184 9.50839 21.8687 9.49929 21.9153 9.48857C22.255 9.4125 22.5785 9.33 22.8919 9.24321C22.9793 9.21911 23.0628 9.19393 23.148 9.16875C23.3843 9.10018 23.6125 9.02839 23.8332 8.95393C23.9119 8.92714 23.9923 8.90143 24.0689 8.87411C24.3464 8.77554 24.6137 8.67375 24.8644 8.56768C24.9003 8.55268 24.9325 8.53607 24.9678 8.52107C25.1837 8.42679 25.3889 8.33036 25.5844 8.23071C25.6514 8.19643 25.7168 8.16214 25.7811 8.12732C25.9562 8.03357 26.1228 7.93768 26.2803 7.83911C26.3211 7.81393 26.365 7.78929 26.4041 7.76411C26.5921 7.6425 26.7657 7.51821 26.9264 7.39125C26.9666 7.35911 27.0025 7.32696 27.0416 7.29482C27.1112 7.23696 27.1846 7.17964 27.2489 7.12125V11.5179C27.2489 11.6052 27.2269 11.693 27.2061 11.7809C27.1911 11.8436 27.1712 11.9057 27.1461 11.9689C27.1236 12.0241 27.0968 12.0793 27.0668 12.1345C27.0314 12.1982 26.9928 12.262 26.9473 12.3257C26.9103 12.3771 26.8686 12.4286 26.8252 12.4805C26.7673 12.5486 26.7057 12.6166 26.6361 12.6841C26.5905 12.7286 26.5407 12.7725 26.4903 12.8164C26.4046 12.8909 26.3152 12.9654 26.2155 13.0387C26.1694 13.073 26.1191 13.1068 26.0703 13.1405C25.9514 13.2225 25.8277 13.3039 25.6921 13.3832C25.6525 13.4068 25.6102 13.4298 25.5689 13.4529C25.4125 13.5412 25.2491 13.6286 25.0728 13.7138C25.0466 13.7261 25.0177 13.7389 24.9909 13.7518C24.7932 13.845 24.5869 13.9366 24.3662 14.025C24.3561 14.0287 24.3453 14.033 24.3352 14.0368C23.1196 14.5211 21.5677 14.9287 19.7585 15.1961C19.7457 15.1977 19.7318 15.1993 19.7189 15.2014C19.3702 15.2523 19.0128 15.2984 18.6459 15.3386C18.5816 15.3455 18.5141 15.3504 18.4493 15.3568C18.1284 15.39 17.8043 15.4211 17.4705 15.4452C17.3136 15.4564 17.1496 15.4623 16.99 15.4714C16.7387 15.4859 16.4896 15.503 16.2314 15.5121C15.805 15.5271 15.3711 15.5357 14.928 15.5357C14.485 15.5357 14.0511 15.5271 13.6252 15.5121C13.3669 15.5025 13.1178 15.4859 12.8661 15.4714C12.7069 15.4623 12.543 15.4564 12.3866 15.4452C12.0523 15.4211 11.7277 15.39 11.4068 15.3568C11.3425 15.3498 11.275 15.3455 11.2112 15.3386C10.8437 15.2984 10.4859 15.2523 10.1371 15.2014C10.1243 15.1998 10.1109 15.1982 10.0985 15.1966C8.28837 14.9293 6.7348 14.5216 5.51926 14.0368C5.51016 14.033 5.50051 14.0298 5.49194 14.0261C5.27016 13.9366 5.06176 13.845 4.86301 13.7507C4.83784 13.7389 4.81105 13.7271 4.78587 13.7148C4.60748 13.6291 4.44301 13.5407 4.28498 13.4518C4.24587 13.4293 4.20462 13.4073 4.16658 13.3848C4.02944 13.3045 3.90408 13.222 3.78408 13.1395C3.73641 13.1062 3.68766 13.0736 3.64319 13.0404C3.54248 12.9659 3.45141 12.8904 3.36462 12.8148C3.31534 12.772 3.26658 12.7291 3.22212 12.6857C3.15141 12.6171 3.08873 12.548 3.03034 12.4789C2.98748 12.4286 2.94676 12.3782 2.91034 12.3273C2.86373 12.2625 2.82408 12.1977 2.78873 12.1329C2.75926 12.0787 2.73301 12.0246 2.71051 11.9705C2.6848 11.9068 2.66444 11.843 2.64944 11.7798C2.62855 11.6925 2.60659 11.6046 2.60659 11.5184V7.12179C2.67087 7.18018 2.74426 7.2375 2.81391 7.29536C2.85248 7.32696 2.88837 7.35911 2.92855 7.39125ZM14.928 1.07143C22.1891 1.07143 27.2494 3.18857 27.2494 5.08929C27.2494 6.99 22.1891 9.10714 14.928 9.10714C7.66694 9.10714 2.60659 6.99 2.60659 5.08929C2.60659 3.18857 7.66694 1.07143 14.928 1.07143Z" fill="white"/>
</svg>
