<svg width="24" height="48" viewBox="0 0 24 48" fill="none" xmlns="http://www.w3.org/2000/svg">
<path d="M15 6L9 12L15 18M15 12H15.01" stroke="black" stroke-width="2" stroke-linecap="round" stroke-linejoin="round"/>
<path d="M19 10H16C14.8954 10 14 10.8954 14 12C14 13.1046 14.8954 14 16 14H19C20.1046 14 21 13.1046 21 12C21 10.8954 20.1046 10 19 10Z" fill="black"/>
<path d="M9.00023 30L15.0002 36L9.00023 42M9.00023 36H8.99023" stroke="black" stroke-width="2" stroke-linecap="round" stroke-linejoin="round"/>
<path d="M5 34H8C9.10457 34 10 34.8954 10 36C10 37.1046 9.10457 38 8 38H5C3.89543 38 3 37.1046 3 36C3 34.8954 3.89543 34 5 34Z" fill="black"/>
</svg>
