<svg width="24" height="24" viewBox="0 0 24 24" fill="none" xmlns="http://www.w3.org/2000/svg">
<g clip-path="url(#clip0_2831_476)">
<path d="M22.8761 21.4471L18.0187 16.5897C18.4054 15.8601 18.6086 15.046 18.6086 14.2128C18.6086 12.5066 17.7394 10.9062 16.3232 9.97014V4.42375C16.3232 4.29696 16.2728 4.17533 16.1831 4.08569L12.2375 0.140032C12.1478 0.0503904 12.0263 0 11.8995 0H1.16559C0.901588 0 0.6875 0.21404 0.6875 0.478088V20.9276C0.6875 21.1916 0.901588 21.4057 1.16559 21.4057H15.8451C16.1091 21.4057 16.3232 21.1916 16.3232 20.9276V19.1241L20.761 23.562C21.0435 23.8444 21.4191 24 21.8185 24C22.218 24 22.5936 23.8444 22.876 23.562C23.4591 22.9789 23.4592 22.0301 22.8761 21.4471ZM14.6909 3.94566H12.3776V1.63233L13.5342 2.78897L14.6909 3.94566ZM15.367 18.9503V20.4495H1.64368V0.956175H11.4214V4.42375C11.4214 4.68779 11.6355 4.90183 11.8995 4.90183H15.367V9.47532L15.3674 9.47598C14.7835 9.24932 14.1591 9.13104 13.5268 9.13104C10.7248 9.13104 8.44505 11.4107 8.44505 14.2128C8.44505 17.0149 10.7248 19.2945 13.5268 19.2945C14.1591 19.2945 14.7835 19.1762 15.3674 18.9496L15.367 18.9503ZM15.727 17.7032C15.6865 17.7288 15.6455 17.7537 15.604 17.7779C14.9762 18.1446 14.258 18.3384 13.5269 18.3384C11.252 18.3384 9.40127 16.4877 9.40127 14.2128C9.40127 11.938 11.252 10.0873 13.5269 10.0873C14.2579 10.0873 14.9762 10.2811 15.604 10.6478C16.8675 11.3857 17.6524 12.7517 17.6524 14.2128C17.6524 14.9945 17.4328 15.7553 17.0171 16.4131C16.6903 16.9303 16.2442 17.3763 15.727 17.7032ZM22.1999 22.8859C22.098 22.9877 21.9626 23.0438 21.8185 23.0438C21.6744 23.0438 21.539 22.9877 21.4371 22.8859L16.7181 18.1669L16.7177 18.1668C16.9977 17.9402 17.2542 17.6837 17.4808 17.4038L17.4809 17.4042L22.1999 22.1232C22.4102 22.3335 22.4102 22.6756 22.1999 22.8859Z" fill="black"/>
<path d="M11.8006 11.3989C10.8138 12.0048 10.2246 13.0572 10.2246 14.2139C10.2246 14.478 10.4387 14.692 10.7027 14.692C10.9667 14.692 11.1808 14.478 11.1808 14.2139C11.1808 13.3921 11.5995 12.6444 12.3009 12.2137C12.5259 12.0755 12.5963 11.7811 12.4581 11.5562C12.32 11.3311 12.0256 11.2607 11.8006 11.3989Z" fill="black"/>
<path d="M15.1898 11.3592C14.6868 11.0654 14.1118 10.9102 13.5269 10.9102C13.2629 10.9102 13.0488 11.1242 13.0488 11.3882C13.0488 11.6523 13.2629 11.8663 13.5269 11.8663C13.9425 11.8663 14.3508 11.9765 14.7075 12.1848C14.7833 12.2291 14.8662 12.2502 14.9481 12.2502C15.1125 12.2502 15.2725 12.1653 15.3614 12.0132C15.4946 11.7851 15.4178 11.4923 15.1898 11.3592Z" fill="black"/>
</g>
<defs>
<clipPath id="clip0_2831_476">
<rect width="24" height="24" fill="white"/>
</clipPath>
</defs>
</svg>
