<svg width="32" height="32" viewBox="0 0 32 32" fill="none" xmlns="http://www.w3.org/2000/svg">
<path d="M16.0151 12.1328C13.8835 12.1328 12.1494 13.8669 12.1494 15.9985C12.1494 16.3034 12.3968 16.5508 12.7017 16.5508C13.0065 16.5508 13.2539 16.3034 13.2539 15.9985C13.2539 14.476 14.4926 13.2373 16.0151 13.2373C16.32 13.2373 16.5674 12.9899 16.5674 12.6851C16.5674 12.3802 16.32 12.1328 16.0151 12.1328Z" fill="white"/>
<path d="M31.8398 15.3921C27.6355 11.1541 22.033 8.82031 16.0632 8.82031C16.0521 8.82031 16.0416 8.82086 16.0306 8.82086C16.0251 8.82086 16.0201 8.82031 16.0151 8.82031C16.0002 8.82031 15.9853 8.82252 15.9704 8.82252C10.0359 8.84627 4.46928 11.1762 0.287105 15.3921L0.160088 15.5202C-0.0547362 15.7367 -0.0530794 16.0862 0.163402 16.3011C0.27109 16.4076 0.411913 16.4612 0.552184 16.4612C0.694112 16.4612 0.836592 16.4065 0.94428 16.2977L1.0713 16.1696C3.97281 13.2444 7.57788 11.2795 11.506 10.4202C9.87965 11.7373 8.8359 13.748 8.8359 15.999C8.8359 19.9575 12.0566 23.1782 16.0151 23.1782C19.9736 23.1782 23.1943 19.9575 23.1943 15.999C23.1943 13.7292 22.1324 11.7058 20.4828 10.3892C24.4651 11.2325 28.1198 13.2101 31.0556 16.1696C31.2704 16.3867 31.6205 16.3878 31.8365 16.1729C32.053 15.9581 32.0546 15.6085 31.8398 15.3921ZM22.0898 15.999C22.0898 19.3484 19.3645 22.0737 16.0151 22.0737C12.6657 22.0737 9.9404 19.3484 9.9404 15.999C9.9404 12.6645 12.6414 9.95076 15.9704 9.92647C15.9908 9.92647 16.0107 9.92481 16.0306 9.92481C19.3733 9.93364 22.0898 12.6551 22.0898 15.999Z" fill="white"/>
</svg>
