<svg width="30" height="30" viewBox="0 0 30 30" fill="none" xmlns="http://www.w3.org/2000/svg">
<path d="M12.1905 20.4014C11.157 22.1969 11.853 23.6714 13.2885 24.4994C14.7225 25.3289 16.35 25.1969 17.3865 23.4014C18.42 21.6089 24.957 5.60386 24.3885 5.27536C23.82 4.94686 13.2255 18.6074 12.1905 20.4014ZM15 9.00136C15.657 9.00136 16.296 9.05686 16.9215 9.16486C17.5785 8.34136 18.3135 7.43386 19.029 6.57286C17.7196 6.19387 16.3632 6.00147 15 6.00136C6.5895 6.00136 0 13.0949 0 22.1504C0 22.7069 0.024 23.2634 0.0735 23.8049C0.147 24.6314 0.8835 25.2374 1.6995 25.1669C2.526 25.0904 3.135 24.3644 3.0615 23.5379C3.02053 23.0765 3.00001 22.6135 3 22.1504C3 14.7764 8.271 9.00136 15 9.00136ZM25.8285 10.8764C25.41 12.0014 24.9675 13.1474 24.5775 14.1374C26.1 16.3424 27 19.1084 27 22.1504C27 22.6244 26.9775 23.1029 26.9355 23.5649C26.9162 23.9519 27.0472 24.3314 27.3013 24.624C27.5553 24.9166 27.9126 25.0997 28.2985 25.135C28.6844 25.1702 29.069 25.0549 29.3718 24.8132C29.6747 24.5714 29.8724 24.222 29.9235 23.8379C29.973 23.2829 30 22.7159 30 22.1504C30 17.7194 28.4205 13.7654 25.8285 10.8764Z" fill="white"/>
</svg>
