<svg width="24" height="24" viewBox="0 0 24 24" fill="none" xmlns="http://www.w3.org/2000/svg">
<g clip-path="url(#clip0_1165_4553)">
<path d="M12 0C5.38315 0 0 5.38315 0 12C0 18.6168 5.38315 23.9999 12 23.9999C18.6168 23.9999 24 18.6168 24 12C24 5.38323 18.6168 0 12 0ZM12 22.8038C6.04266 22.8038 1.19606 17.9573 1.19606 12C1.19606 6.04274 6.04266 1.19606 12 1.19606C17.9573 1.19606 22.8039 6.04266 22.8039 11.9999C22.8039 17.9572 17.9573 22.8038 12 22.8038Z" fill="white"/>
<path d="M11.4018 11.4029H6.62988V12.599H12.5979V3.5H11.4018V11.4029Z" fill="white"/>
</g>
<defs>
<clipPath id="clip0_1165_4553">
<rect width="24" height="24" fill="white"/>
</clipPath>
</defs>
</svg>
