<svg width="30" height="30" viewBox="0 0 30 30" fill="none" xmlns="http://www.w3.org/2000/svg">
<g clip-path="url(#clip0_1400_803)">
<path d="M28.6717 24.8666C28.1635 24.3584 27.6044 23.9518 27.0454 23.596C25.5206 22.6303 23.6909 20.7498 23.3352 19.5808V19.53L22.8777 18.5135C22.6745 18.0052 22.217 17.6494 21.7088 17.5478C21.2005 17.4461 20.6414 17.6495 20.2857 18.0052L20.0062 18.2848L14.6187 12.8973L16.7788 10.7373C16.8804 10.6356 16.9312 10.534 16.9312 10.4323L17.7444 3.62177C17.7444 3.52009 17.7444 3.41848 17.6428 3.31681L17.1854 2.55443C17.1345 2.40197 16.9821 2.3003 16.8296 2.3003C16.677 2.3003 16.5246 2.35114 16.423 2.45275L10.2985 8.5772L9.58699 7.86566L15.7114 1.74127C15.9147 1.58882 15.9147 1.28386 15.7622 1.08057L15.1014 0.216514C14.949 0.0640615 14.7965 -0.0376124 14.5932 0.0132245L7.68101 1.23302C7.57934 1.28385 7.47772 1.33469 7.42689 1.38547L0.616319 8.19604C0.514646 8.29771 0.463867 8.39933 0.463867 8.55184C0.463867 8.70435 0.514704 8.80596 0.616319 8.90764L4.22492 12.5162C4.3266 12.6179 4.42821 12.6687 4.58072 12.6687C4.6824 12.6687 4.83485 12.6179 4.93652 12.5162L7.45236 10.0004L8.16391 10.7119L5.64806 13.2278C5.44477 13.4311 5.44477 13.736 5.64806 13.9393L9.25666 17.5479C9.35834 17.6496 9.45995 17.7004 9.61247 17.7004C9.76492 17.7004 9.86659 17.6495 9.96827 17.5479L12.4841 15.0321L17.8715 20.4195L17.5412 20.7499C17.1346 21.1057 16.9821 21.6647 17.0837 22.173C17.1854 22.6812 17.5412 23.1386 18.0494 23.3419L19.1167 23.7993H19.1676C20.3365 24.1551 22.2171 25.9848 23.1828 27.5096C23.6402 28.1703 23.996 28.6785 24.4534 29.1359C24.5135 29.196 24.5757 29.2525 24.6391 29.3067C24.6586 29.3359 24.6813 29.3639 24.7075 29.3901C24.776 29.4586 24.8449 29.5034 24.929 29.5258C25.3939 29.8348 25.9263 30 26.4864 30C27.2488 30 28.0112 29.695 28.4686 29.1359L28.6719 28.9326C29.231 28.4244 29.5359 27.662 29.5359 26.8996C29.5359 26.1373 29.2308 25.4257 28.6717 24.8666ZM4.58072 11.4488L1.68366 8.55184L8.03681 2.19869L14.4916 1.08057L14.6949 1.33469L8.65646 7.37304C8.59836 7.3984 8.54331 7.43536 8.49423 7.48444L7.07115 8.90752C7.01738 8.96129 6.97826 9.01529 6.95296 9.07655L4.58072 11.4488ZM8.18927 9.26338L8.90081 8.55184L9.61235 9.26338L8.90081 9.97492L8.18927 9.26338ZM9.61235 16.4805L6.71535 13.5835L16.677 3.62177L16.7279 3.67261L15.9655 10.1274L9.61235 16.4805ZM13.6005 13.9155L13.9326 13.5835L19.32 18.9709L18.6084 19.6824L13.221 14.295L13.6005 13.9155ZM28.011 28.2211L27.8078 28.4244C27.3095 28.9226 26.5872 29.0715 25.937 28.872L26.4863 28.3228C26.6896 28.1195 26.6896 27.8145 26.4863 27.6112C26.283 27.4079 25.978 27.4079 25.7747 27.6112L25.0644 28.3215C24.839 28.086 24.6299 27.8298 24.4371 27.5258L25.0632 26.8997C25.2665 26.6964 25.2665 26.3914 25.0632 26.1882C24.8599 25.9849 24.555 25.9849 24.3517 26.1882L23.9143 26.6255C22.9317 25.2054 21.0518 23.2119 19.5741 22.7828L18.5576 22.3254C18.3543 22.2746 18.2526 22.1221 18.2018 21.9188C18.151 21.7664 18.2018 21.563 18.3543 21.4106L19.621 20.1439L20.3873 19.3776L21.0988 18.666C21.2005 18.5136 21.4038 18.4628 21.6071 18.5136C21.7595 18.5644 21.912 18.666 22.0136 18.8694L22.4202 19.8859C22.8776 21.5123 25.1139 23.5453 26.5371 24.4602C27.0453 24.7651 27.5536 25.1209 28.011 25.5783C28.3668 25.9341 28.5701 26.3915 28.5701 26.8998C28.5701 27.4079 28.3668 27.8653 28.011 28.2211Z" fill="white"/>
</g>
<defs>
<clipPath id="clip0_1400_803">
<rect width="30" height="30" fill="white"/>
</clipPath>
</defs>
</svg>
