<svg width="30" height="30" viewBox="0 0 30 30" fill="none" xmlns="http://www.w3.org/2000/svg">
<path d="M9.54112 30C3.3946 26.5359 1.77635 23.257 2.70155 18.7787C3.38457 15.4719 5.6211 12.7816 5.83555 9.48112C6.79092 11.2197 7.19012 12.4734 7.29687 14.2902C10.3354 10.5674 12.3434 5.41365 12.4623 0C12.4623 0 20.3767 4.65025 20.896 11.6745C21.5773 10.2267 21.9203 7.9272 21.239 6.4369C23.2829 7.92728 35.2463 21.1579 19.6185 30C22.5567 24.2791 20.3765 16.5597 15.275 12.9945C15.6157 14.5275 15.0184 20.2451 12.7615 22.7574C13.3868 18.5595 12.1665 16.7845 12.1665 16.7845C12.1665 16.7845 11.7476 19.1358 10.1225 21.5111C8.63855 23.6801 7.6103 25.9823 9.54112 30Z" fill="white"/>
</svg>
